<?xml version="1.0" encoding="UTF-8"?>
<svg width="60px" height="60px" viewBox="0 0 60 60" version="1.1" xmlns="http://www.w3.org/2000/svg" xmlns:xlink="http://www.w3.org/1999/xlink">
    <!-- Generator: Sketch 62 (91390) - https://sketch.com -->
    <title>001-loupe</title>
    <desc>Created with Sketch.</desc>
    <g id="Landing-page" stroke="none" stroke-width="1" fill="none" fill-rule="evenodd">
        <g id="Caregiver-landing-step-1" transform="translate(-113.000000, -2740.000000)" fill="#08A0E9" fill-rule="nonzero">
            <g id="001-loupe" transform="translate(113.000000, 2740.000000)">
                <path d="M22.5,5 C12.848916,5 5,12.848916 5,22.5 C5,32.151084 12.848916,40 22.5,40 C32.151084,40 40,32.151084 40,22.5 C40,12.848916 32.151084,5 22.5,5 Z M22.5,38.0555556 C19.2750678,38.0555556 16.2754065,37.071477 13.7855691,35.3760163 C14.1649729,30.8943089 17.9234417,27.3611111 22.5,27.3611111 C27.0765583,27.3611111 30.8350271,30.8943089 31.2144309,35.3760163 C28.7245935,37.0596206 25.7249322,38.0555556 22.5,38.0555556 Z M32.9810298,33.9651084 C31.9850949,29.0921409 27.6693767,25.4166667 22.5,25.4166667 C17.3306233,25.4166667 13.0149051,29.0921409 12.0189702,33.9651084 C8.91260163,31.1195799 6.94444444,27.0409892 6.94444444,22.5 C6.94444444,13.9278455 13.9278455,6.94444444 22.5,6.94444444 C31.0721545,6.94444444 38.0555556,13.9278455 38.0555556,22.5 C38.0555556,27.0409892 36.0873984,31.1195799 32.9810298,33.9651084 Z" id="Shape"></path>
                <path d="M22.5,13.3333333 C19.2869241,13.3333333 16.6666667,15.9535908 16.6666667,19.1666667 C16.6666667,22.3797425 19.2869241,25 22.5,25 C25.7130759,25 28.3333333,22.3797425 28.3333333,19.1666667 C28.3333333,15.9535908 25.7130759,13.3333333 22.5,13.3333333 Z M22.5,23.0555556 C20.3539973,23.0555556 18.6111111,21.3126694 18.6111111,19.1666667 C18.6111111,17.020664 20.3539973,15.2777778 22.5,15.2777778 C24.6460027,15.2777778 26.3888889,17.020664 26.3888889,19.1666667 C26.3888889,21.3126694 24.6460027,23.0555556 22.5,23.0555556 Z" id="Shape"></path>
                <path d="M58.5579558,51.7322835 L43.1921945,36.6141732 L42.0877804,37.7007874 L40.4071503,36.0472441 C43.4562936,32.2559055 45.2809777,27.4606299 45.2809777,22.2637795 C45.2809777,9.99212598 35.1251699,0 22.6404889,0 C10.1558078,0 0,9.99212598 0,22.2755906 C0,34.5590551 10.1558078,44.5511811 22.6404889,44.5511811 C27.4182802,44.5511811 31.8599456,43.0866142 35.5213184,40.5826772 L37.3460026,42.3779528 L36.2415885,43.4645669 L51.6073497,58.5826772 C52.5677098,59.5275591 53.8281824,60 55.088655,60 C56.3491276,60 57.6096002,59.5275591 58.5699603,58.5826772 C60.4786759,56.6929134 60.4786759,53.6220472 58.5579558,51.7322835 Z M22.6404889,42.6141732 C11.2482174,42.6141732 1.96873816,33.496063 1.96873816,22.2755906 C1.96873816,11.0551181 11.2482174,1.93700787 22.6404889,1.93700787 C34.0327603,1.93700787 43.3122395,11.0669291 43.3122395,22.2755906 C43.3122395,33.484252 34.0327603,42.6141732 22.6404889,42.6141732 Z M37.1059125,39.4015748 C37.8141781,38.8228346 38.4864301,38.1968504 39.1226687,37.523622 L40.6952583,39.0708661 L38.7385247,40.996063 L37.1059125,39.4015748 Z M57.1654337,57.2125984 C56.0130016,58.3464567 54.1402994,58.3464567 52.9878673,57.2125984 L39.0266327,43.476378 L43.204199,39.3661417 L57.1774382,53.1141732 C58.3178658,54.2362205 58.3178658,56.0787402 57.1654337,57.2125984 Z" id="Shape"></path>
                <polygon id="Rectangle" transform="translate(51.678863, 51.818477) rotate(-45.000000) translate(-51.678863, -51.818477) " points="50.6948723 50.8344869 52.6473575 50.8499828 52.6628534 52.802468 50.7103682 52.7869721"></polygon>
                <polygon id="Rectangle" transform="translate(48.892871, 49.079642) rotate(-44.991897) translate(-48.892871, -49.079642) " points="47.9088782 48.0956533 49.8613678 48.1111492 49.8768637 50.06363 47.9243741 50.0481341"></polygon>
                <polygon id="Rectangle" transform="translate(46.114750, 46.343976) rotate(-45.000000) translate(-46.114750, -46.343976) " points="45.1307597 45.3599854 47.0832449 45.3754813 47.0987408 47.3279665 45.1462556 47.3124706"></polygon>
            </g>
        </g>
    </g>
</svg>