<?xml version="1.0" encoding="UTF-8"?>
<svg width="69px" height="80px" viewBox="0 0 69 80" version="1.1" xmlns="http://www.w3.org/2000/svg" xmlns:xlink="http://www.w3.org/1999/xlink">
    <!-- Generator: Sketch 61.2 (89653) - https://sketch.com -->
    <title>user</title>
    <desc>Created with Sketch.</desc>
    <g id="Landing-page" stroke="none" stroke-width="1" fill="none" fill-rule="evenodd">
        <g id="Caregiver-landing-step-1" transform="translate(-217.000000, -1285.000000)" fill="#08A0E9" fill-rule="nonzero">
            <g id="Group-17" transform="translate(113.000000, 1237.000000)">
                <g id="user" transform="translate(104.000000, 48.000000)">
                    <g>
                        <path d="M28.095238,31.4285714 C32.412809,31.4285714 36.1509872,29.8799909 39.2062386,26.8246426 C42.2604944,23.7697923 43.8095238,20.0319935 43.8095238,15.713788 C43.8095238,11.3970758 42.2609922,7.65877913 39.2057409,4.6029333 C36.1504894,1.5485807 32.4123113,0 28.095238,0 C23.7771694,0 20.0394889,1.5485807 16.9847353,4.60343104 C13.9299817,7.65828139 12.3809524,11.3965781 12.3809524,15.713788 C12.3809524,20.0319935 13.9299817,23.77029 16.9847353,26.8251404 C20.0404845,29.879493 23.7786626,31.4285714 28.095238,31.4285714 Z M19.6885681,7.3068517 C22.0325204,4.96282514 24.7821469,3.82341626 28.095238,3.82341626 C31.4078314,3.82341626 34.1579559,4.96282514 36.5024058,7.3068517 C38.846358,9.65137589 39.9862287,12.4015874 39.9862287,15.713788 C39.9862287,19.026984 38.846358,21.7766978 36.5024058,24.121222 C34.1579559,26.4657463 31.4078314,27.6051552 28.095238,27.6051552 C24.7831425,27.6051552 22.0335158,26.4652485 19.6885681,24.121222 C17.3441182,21.7771955 16.2042475,19.026984 16.2042475,15.713788 C16.2042475,12.4015874 17.3441182,9.65137589 19.6885681,7.3068517 Z" id="Shape"></path>
                        <path d="M40.6751686,31.4290633 C42.3961499,31.4290633 44.0049921,31.7124205 45.4567387,32.2717559 C46.9135364,32.8340427 48.1733331,33.6049121 49.202285,34.5637024 C50.1862801,35.4801857 51.0631876,36.5939369 51.8092661,37.8729798 C52.5290778,39.1052885 53.1104836,40.3912185 53.5388347,41.6933826 C53.953042,42.9532398 54.2990568,44.3316545 54.5677865,45.7897633 C54.5691469,45.7971594 54.5705051,45.8045535 54.571861,45.8119456 C53.5426527,45.608419 52.4794118,45.5012524 51.3913657,45.5 C51.1126596,45.5 50.8355771,45.5069613 50.5602825,45.5207197 C50.3577628,44.5735504 50.1171874,43.6772935 49.8438014,42.845505 C49.4972815,41.7912784 49.0234687,40.7459069 48.4360013,39.7398905 C47.875811,38.7796244 47.2312639,37.9566096 46.5200394,37.2939669 C45.8547818,36.6741231 45.0162645,36.1659495 44.0287333,35.7851883 C43.1144462,35.4329595 42.0875149,35.2401192 40.9721856,35.2110947 C40.8363054,35.2814421 40.5943476,35.4162336 40.202366,35.6646631 C39.4047641,36.1713608 38.5111874,36.732172 37.4711226,37.3795644 C36.3239702,38.0918929 34.8484825,38.7338741 33.0835548,39.2892738 C31.2817525,39.8564801 29.4425706,40.1447568 27.6175322,40.1447568 C25.7924939,40.1447568 23.9538171,39.8564801 22.1510046,39.2887819 C20.3875922,38.734366 18.9115995,38.0918929 17.7659624,37.3805483 C16.7496388,36.748406 15.8303004,36.1708689 15.0326985,35.6646631 C14.6407169,35.4157416 14.3987591,35.2814421 14.2628789,35.2110947 C13.1480547,35.2401192 12.1211235,35.4329595 11.2073415,35.7851883 C10.2193053,36.1659495 9.38078782,36.6736312 8.71553033,37.2939669 C8.00430588,37.9571015 7.3597586,38.7801164 6.79956835,39.7393986 C6.21260619,40.7459069 5.73929835,41.7907865 5.39227345,42.8459969 C5.03059965,43.9464658 4.72651073,45.1620485 4.4875838,46.4573253 C4.24562602,47.7688362 4.08246867,49.0031126 4.00265804,50.1267025 C3.92082675,51.2719378 3.87991117,52.4648914 3.87991117,53.673095 C3.87991117,55.9960335 4.55375599,57.750782 5.94034055,59.0362201 C7.35369715,60.3462552 9.23076382,60.983317 11.6791338,60.983317 L11.6791338,60.983317 L35.0252734,60.9834407 C35.0084984,61.2874985 35,61.5937643 35,61.9020163 C35,62.8776494 35.0851328,63.8333849 35.248371,64.7621917 L11.6791338,64.7619048 C8.23565581,64.7619048 5.40490169,63.7563803 3.26516678,61.7733718 C1.09865996,59.7637987 -2.13162821e-14,57.0389454 -2.13162821e-14,53.673095 C-2.13162821e-14,52.37831 0.0444515279,51.0968075 0.132344386,49.8654827 C0.221752541,48.6061174 0.402084275,47.2350818 0.668793443,45.7897633 C0.937523135,44.3316545 1.28353784,42.9537317 1.69724016,41.6938745 C2.12559125,40.3907266 2.70750216,39.1052885 3.4263036,37.8729798 C4.17187696,36.5944289 5.04878437,35.4811697 6.03277956,34.5641943 C7.0627417,33.6044202 8.32304344,32.8335508 9.77883105,32.2722478 C11.2300724,31.7124205 12.8384095,31.4285714 14.5598959,31.4285714 C15.2357611,31.4285714 15.8894007,31.6986463 17.1507128,32.4990319 C17.9392222,32.9993344 18.848458,33.5699843 19.8531637,34.1952396 C20.7189582,34.7334215 21.894398,35.2376595 23.3441241,35.6936876 C24.7610165,36.1398767 26.1986192,36.366169 27.6170271,36.366169 C29.0364453,36.366169 30.474048,36.1398767 31.8899303,35.6936876 C33.3411716,35.2371676 34.5161063,34.7329296 35.3834162,34.1947477 C36.3977193,33.5635892 37.30645,32.9929393 38.0833414,32.4995238 C39.3456638,31.6991383 39.9993032,31.4290633 40.6751686,31.4290633 Z" id="Combined-Shape"></path>
                    </g>
                    <g id="Group-5" transform="translate(33.333333, 43.809524)">
                        <path d="M17.7663355,4.98553795e-14 C7.95335843,4.98553795e-14 5.24793469e-14,7.95769425 5.24793469e-14,17.7736054 C5.24793469e-14,27.5895166 7.95335845,35.5472117 17.7649706,35.5472117 C27.5760946,35.5472117 35.5293562,27.5894196 35.5293562,17.7736054 C35.5187015,7.9618147 27.572507,0.0112873433 17.7663355,4.98553795e-14 Z M17.7636057,2.37158927 C26.2618012,2.38137107 33.148532,9.27185691 33.157766,17.7748931 C33.157766,26.2799284 26.2659988,33.1756209 17.7649706,33.1756209 C9.26344139,33.1756209 2.37159084,26.2800125 2.37159084,17.7736054 C2.37159084,9.26719839 9.26344136,2.37158927 17.7636057,2.37158927 Z" id="Path-Copy-3"></path>
                        <path d="M24.9238579,12.1183546 C24.1579799,11.4119 22.9673707,11.4640639 22.2648855,12.2344841 L16.1334007,18.9589026 L12.8308747,16.1132573 C12.0412832,15.4330027 10.8534914,15.5248205 10.1768328,16.3183722 C9.50017423,17.1119239 9.5915067,18.3065002 10.3808635,18.9865188 L15.0655855,23.0231998 C15.4198804,23.3283938 15.8556466,23.4787485 16.2897694,23.4787485 C16.7997286,23.4787485 17.3073399,23.2715092 17.6778352,22.8650559 L25.0393736,14.7914579 C25.7418588,14.0215097 25.6899707,12.8245731 24.9238579,12.1183546 Z" id="Path-Copy-2"></path>
                    </g>
                </g>
            </g>
        </g>
    </g>
</svg>