<?xml version="1.0" encoding="UTF-8"?>
<svg width="109px" height="72px" viewBox="0 0 109 72" version="1.1" xmlns="http://www.w3.org/2000/svg" xmlns:xlink="http://www.w3.org/1999/xlink">
    <!-- Generator: Sketch 61.2 (89653) - https://sketch.com -->
    <title>Group</title>
    <desc>Created with Sketch.</desc>
    <g id="Page-1" stroke="none" stroke-width="1" fill="none" fill-rule="evenodd">
        <g id="Group">
            <rect id="Rectangle" stroke="#08A0E9" stroke-width="4" x="2" y="2" width="105" height="68" rx="8"></rect>
            <g id="Group-10" transform="translate(12.000000, 14.000000)" fill="#08A0E9" fill-rule="nonzero">
                <g id="user" transform="translate(0.000000, 1.000000)">
                    <path d="M18.9,19.95 C21.6406763,19.95 24.0135698,18.9670033 25.9529601,17.0275516 C27.8917184,15.0884159 28.875,12.7157631 28.875,9.97468405 C28.875,7.2345529 27.8920343,4.86158412 25.9526441,2.92181652 C24.0132539,0.982996791 21.6403603,0 18.9,0 C16.1590078,0 13.7864301,0.982996791 11.8473559,2.92213248 C9.9082816,4.86126816 8.925,7.23423694 8.925,9.97468405 C8.925,12.7157631 9.9082816,15.0887318 11.8473559,17.0278675 C13.7870621,18.9666873 16.1599556,19.95 18.9,19.95 Z M13.5636751,4.63819018 C15.0515521,3.15026605 16.7969401,2.42700036 18.9,2.42700036 C21.0027439,2.42700036 22.7484479,3.15026605 24.2366408,4.63819018 C25.7245177,6.12643019 26.4480765,7.87218947 26.4480765,9.97468405 C26.4480765,12.0778105 25.7245177,13.8232539 24.2366408,15.3114939 C22.7484479,16.799734 21.0027439,17.5229996 18.9,17.5229996 C16.7975721,17.5229996 15.052184,16.799418 13.5636751,15.3114939 C12.0754823,13.8235698 11.3519235,12.0778105 11.3519235,9.97468405 C11.3519235,7.87218947 12.0754823,6.12643019 13.5636751,4.63819018 Z" id="Shape"></path>
                    <path d="M35.0910319,32.1450405 C35.0349476,31.3139228 34.9215113,30.4073083 34.7545257,29.4499284 C34.5859558,28.4853894 34.368906,27.5735681 34.1090802,26.7401726 C33.8403822,25.878791 33.4756754,25.0281483 33.0241487,24.2129761 C32.5561452,23.3668893 32.0060748,22.6301429 31.3888299,22.0238891 C30.7433844,21.3896493 29.9531334,20.8797193 29.0393068,20.5077665 C28.1286487,20.1377662 27.119447,19.9503254 26.0399021,19.9503254 C25.6159422,19.9503254 25.2059244,20.12898 24.4140891,20.658435 C23.9267572,20.9848293 23.3567245,21.3623142 22.720468,21.7798256 C22.1764179,22.1358329 21.4393996,22.4693864 20.5290584,22.7713743 C19.6408975,23.0665284 18.7391116,23.2162208 17.8487326,23.2162208 C16.9589873,23.2162208 16.0572014,23.0665284 15.1684068,22.7713743 C14.2590161,22.4697118 13.521681,22.1361583 12.9785815,21.780151 C12.3483453,21.3665446 11.7779957,20.9890597 11.283376,20.6581096 C10.4921745,20.1286546 10.0821565,19.95 9.65819678,19.95 C8.57833505,19.95 7.56945014,20.1377662 6.65910898,20.5080919 C5.745916,20.8793939 4.95534827,21.3893239 4.309269,22.0242145 C3.69202409,22.6307937 3.14195368,23.3672147 2.67426708,24.2129761 C2.22337409,25.0281483 1.8583504,25.8784656 1.58965241,26.740498 C1.33014337,27.5738935 1.11309371,28.4853894 0.944523749,29.4499284 C0.777221227,30.4060066 0.664101928,31.3129467 0.60801758,32.1460168 C0.552883754,32.9605381 0.525,33.8082521 0.525,34.6647523 C0.525,36.8912624 1.21417234,38.6937529 2.57318845,40.0230855 C3.91541096,41.3348456 5.6910991,42 7.85113941,42 L27.8488606,42 C30.0082672,42 31.7839554,41.3348456 33.1264947,40.0230855 C34.4858277,38.6947291 35.175,36.8915879 35.175,34.6644268 C35.175,33.8049978 35.1464826,32.9572839 35.0910319,32.1450405 L35.0910319,32.1450405 Z M31.4483997,38.2121342 C30.5615062,39.0790478 29.3840514,39.5004642 27.8485438,39.5004642 L7.85113941,39.5004642 C6.31531491,39.5004642 5.13786012,39.0790478 4.25128345,38.2124596 C3.38150047,37.3621423 2.95880807,36.2013762 2.95880807,34.6647523 C2.95880807,33.8655256 2.98447378,33.0763869 3.03580528,32.3188137 C3.08586925,31.575559 3.18821532,30.7590851 3.33999168,29.8915207 C3.48986684,29.0346951 3.6806171,28.2305871 3.90748946,27.5026269 C4.1251728,26.8046053 4.42207146,26.1134174 4.79026372,25.4476122 C5.14166236,24.813047 5.54597687,24.2686226 5.99211693,23.8299591 C6.40942264,23.419607 6.93541163,23.0837756 7.55519143,22.831902 C8.12839266,22.5989027 8.77257072,22.4713389 9.47188261,22.4521392 C9.55711816,22.498674 9.70889452,22.5875131 9.95477853,22.7521746 C10.4551018,23.0870298 11.0317885,23.4690706 11.6693125,23.8872327 C12.3879529,24.3577871 13.3138202,24.7827831 14.4199815,25.1495293 C15.5508578,25.5250616 16.7042312,25.7157566 17.8490494,25.7157566 C18.9938677,25.7157566 20.147558,25.5250616 21.2778006,25.1498546 C22.3849123,24.7824577 23.3104629,24.3577871 24.0300538,23.8865818 C24.6824703,23.4583318 25.2429971,23.0873552 25.7433203,22.7521746 C25.9892044,22.5878386 26.1409807,22.498674 26.2262163,22.4521392 C26.925845,22.4713389 27.5700231,22.5989027 28.1435412,22.831902 C28.7630042,23.0837756 29.2889931,23.4199324 29.7062989,23.8299591 C30.1524389,24.2682972 30.5567534,24.8127216 30.908152,25.4479376 C31.2766612,26.1134174 31.5738766,26.8049307 31.7912432,27.5023015 C32.0184324,28.2312379 32.2094995,29.0350205 32.3590578,29.8911953 C32.5105172,30.7603868 32.6131801,31.5771861 32.6632442,32.3191392 L32.6632442,32.31979 C32.7148925,33.0744344 32.7408751,33.8632477 32.7411919,34.6647523 C32.7408751,36.2017017 32.3181827,37.3621423 31.4483997,38.2121342 L31.4483997,38.2121342 Z" id="Shape"></path>
                </g>
                <g id="Group-6" transform="translate(44.000000, 0.000000)">
                    <path d="M27.5521087,0.5 L2.19789134,0.5 C1.26031308,0.5 0.5,1.33938818 0.5,2.375 C0.5,3.41037795 1.26010129,4.25 2.19789134,4.25 L27.5521087,4.25 C28.4896869,4.25 29.25,3.41061182 29.25,2.375 C29.25,1.33938818 28.4896869,0.5 27.5521087,0.5 Z" id="Path"></path>
                    <path d="M36.3158129,11.25 L2.18418709,11.25 C1.25417633,11.25 0.5,12.0893882 0.5,13.125 C0.5,14.1606118 1.25396625,15 2.18418709,15 L36.3158129,15 C37.2458237,15 38,14.1606118 38,13.125 C38,12.0893882 37.2458237,11.25 36.3158129,11.25 Z" id="Path"></path>
                    <path d="M27.3917513,40 L3.35824869,40 C2.40114604,40 1.625,40.8393882 1.625,41.875 C1.625,42.9106118 2.40092984,43.75 3.35824869,43.75 L27.3917513,43.75 C28.348854,43.75 29.125,42.9106118 29.125,41.875 C29.125,40.8393882 28.348854,40 27.3917513,40 Z" id="Path"></path>
                    <g id="Group-15" transform="translate(0.500000, 22.000000)">
                        <path d="M5.3125,0 C2.38310641,0 0,2.38310641 0,5.3125 C0,8.24189359 2.38310641,10.625 5.3125,10.625 C8.24189359,10.625 10.625,8.24189359 10.625,5.3125 C10.625,2.38310641 8.24189359,0 5.3125,0 Z M5.3125,7.23412805 C4.25291861,7.23412805 3.39087195,6.37208139 3.39087195,5.3125 C3.39087195,4.25291861 4.25291861,3.39087195 5.3125,3.39087195 C6.37208139,3.39087195 7.23412805,4.25291861 7.23412805,5.3125 C7.23412805,6.37208139 6.37208139,7.23412805 5.3125,7.23412805 Z" id="Shape"></path>
                        <path d="M19.6875,0 C16.7581064,0 14.375,2.38310641 14.375,5.3125 C14.375,8.24189359 16.7581064,10.625 19.6875,10.625 C22.6168936,10.625 25,8.24189359 25,5.3125 C25,2.38310641 22.6168936,0 19.6875,0 Z M19.6875,7.23412805 C18.6279186,7.23412805 17.7658719,6.37208139 17.7658719,5.3125 C17.7658719,4.25291861 18.6279186,3.39087195 19.6875,3.39087195 C20.7470814,3.39087195 21.6091281,4.25291861 21.6091281,5.3125 C21.6091281,6.37208139 20.7470814,7.23412805 19.6875,7.23412805 Z" id="Shape"></path>
                        <path d="M34.0625,0 C31.1331064,0 28.75,2.38310641 28.75,5.3125 C28.75,8.24189359 31.1331064,10.625 34.0625,10.625 C36.9918936,10.625 39.375,8.24189359 39.375,5.3125 C39.375,2.38310641 36.9918936,0 34.0625,0 Z M34.0625,7.23412805 C33.0029186,7.23412805 32.1408719,6.37208139 32.1408719,5.3125 C32.1408719,4.25291861 33.0029186,3.39087195 34.0625,3.39087195 C35.1220814,3.39087195 35.9841281,4.25291861 35.9841281,5.3125 C35.9841281,6.37208139 35.1220814,7.23412805 34.0625,7.23412805 Z" id="Shape"></path>
                    </g>
                </g>
            </g>
        </g>
    </g>
</svg>