<?xml version="1.0" encoding="UTF-8"?>
<svg width="20px" height="20px" viewBox="0 0 20 20" version="1.1" xmlns="http://www.w3.org/2000/svg" xmlns:xlink="http://www.w3.org/1999/xlink">
    <!-- Generator: Sketch 61.2 (89653) - https://sketch.com -->
    <title>close</title>
    <desc>Created with Sketch.</desc>
    <g id="Booking-system" stroke="none" stroke-width="1" fill="none" fill-rule="evenodd">
        <g id="Caregiver-Search-Results---Employer-Pop-Up" transform="translate(-834.000000, -519.000000)" fill="#000000" fill-rule="nonzero">
            <g id="Pop-up" transform="translate(473.000000, 483.000000)">
                <g id="close" transform="translate(361.000000, 36.000000)">
                    <path d="M13.7473862,6.20091777 C13.6608387,6.11407993 13.5432156,6.0652881 13.42051,6.0652881 C13.2978044,6.0652881 13.1803264,6.11407993 13.093779,6.20091777 L9.95469331,9.33971305 L6.65354903,6.03856877 C6.47304833,5.85806807 6.1802974,5.85806807 5.99994193,6.03856877 C5.81944123,6.21921468 5.81944123,6.51182041 5.99994193,6.69246632 L9.30108621,9.99361059 L5.99994193,13.2946097 C5.91310409,13.3811571 5.86431227,13.4989254 5.86431227,13.621631 C5.86431227,13.7441914 5.91310409,13.8616694 5.99994193,13.9485072 C6.08692494,14.0359259 6.20570981,14.0844273 6.32899628,14.0828682 C6.45199234,14.0822491 6.57005112,14.0341833 6.65834108,13.9485072 L9.95948535,10.6473629 L13.0982807,13.7861582 C13.1852637,13.8737221 13.3040486,13.9222235 13.4274803,13.9206262 C13.5504763,13.9200453 13.6685351,13.8718343 13.7566799,13.7861582 C13.8435177,13.6994656 13.8923095,13.5818425 13.8923095,13.4592821 C13.8923095,13.3367216 13.8435177,13.2189533 13.7566799,13.1324059 L10.6177393,9.99361059 L13.7566799,6.85467007 C13.9303555,6.66981297 13.9261443,6.38069238 13.7473862,6.20091777 L13.7473862,6.20091777 Z" id="Path"></path>
                    <path d="M9.96863383,0.0343867163 C5.93677394,0.0336895911 2.30163799,2.46224442 0.758741859,6.18726766 C-0.783863866,9.9124361 0.0694121933,14.2000174 2.92126509,17.0501278 C6.81357457,20.9424372 13.1239835,20.9424372 17.0161478,17.0501278 C20.908312,13.1581087 20.908312,6.84769981 17.0161478,2.95539033 C15.1511675,1.07980948 12.6135572,0.0280262454 9.96863383,0.0343867163 Z M16.3623955,16.3965207 C12.8387837,19.9202777 7.10327602,19.9202777 3.57501743,16.3965207 C0.0448710409,12.8656483 0.045161487,7.14146725 3.5760339,3.61074 C7.10661595,0.0804484015 12.830797,0.0804484015 16.3615242,3.61074 C19.8921062,7.14146725 19.892687,12.8656483 16.3623955,16.3965207 Z" id="Shape"></path>
                </g>
            </g>
        </g>
    </g>
</svg>