<?xml version="1.0" encoding="UTF-8"?>
<svg width="32px" height="32px" viewBox="0 0 32 32" version="1.1" xmlns="http://www.w3.org/2000/svg" xmlns:xlink="http://www.w3.org/1999/xlink">
    <!-- Generator: Sketch 61.2 (89653) - https://sketch.com -->
    <title>Group 2</title>
    <desc>Created with Sketch.</desc>
    <defs>
        <rect id="path-1" x="0" y="0" width="24" height="24" rx="12"></rect>
        <filter x="-29.2%" y="-20.8%" width="158.3%" height="158.3%" filterUnits="objectBoundingBox" id="filter-2">
            <feOffset dx="0" dy="2" in="SourceAlpha" result="shadowOffsetOuter1"></feOffset>
            <feGaussianBlur stdDeviation="2" in="shadowOffsetOuter1" result="shadowBlurOuter1"></feGaussianBlur>
            <feColorMatrix values="0 0 0 0 0   0 0 0 0 0   0 0 0 0 0  0 0 0 0.0975743007 0" type="matrix" in="shadowBlurOuter1"></feColorMatrix>
        </filter>
    </defs>
    <g id="Page-1" stroke="none" stroke-width="1" fill="none" fill-rule="evenodd">
        <g id="Group-2" transform="translate(4.000000, 2.000000)" fill-rule="nonzero">
            <g id="Rectangle">
                <use fill="black" fill-opacity="1" filter="url(#filter-2)" xlink:href="#path-1"></use>
                <use fill="#DF290F" xlink:href="#path-1"></use>
            </g>
            <g id="Group" transform="translate(5.000000, 5.000000)" fill="#F5F5F5">
                <path d="M4.97818212,7.93897965 C4.23682287,7.94659309 3.40445916,7.70920825 2.67499593,6.90521652 C2.62467581,6.84978112 2.63175394,6.76246442 2.68885478,6.71404766 L2.6890927,6.71380974 C2.7445281,6.66682051 2.8264916,6.67413655 2.87538419,6.72784703 C3.98718514,7.94879386 5.36527823,7.73502258 6.18854149,7.44000158 C5.88436056,7.45350355 5.50220129,7.43066321 5.25637027,7.26905593 C4.22944735,6.59407642 4.69458128,5.87591439 4.01252363,5.00780318 C3.33480804,4.14528309 2.72501864,4.1663985 1.76477285,4.31188669 C0.814162815,4.45594735 0.511290441,3.75866282 0.417074055,3.37162618 C0.400181723,3.30233193 0.303526654,3.29793041 0.278782957,3.36478598 C-0.90605948,6.56600184 2.6566166,10.5270158 6.3142823,7.67899238 C5.95353585,7.81198976 5.48869932,7.9337454 4.97818212,7.93897965 Z M2.30907471,6.85257668 C2.2882567,6.909737 2.20665008,6.90753624 2.18898451,6.84930528 L2.05253729,6.39969564 L1.58294236,6.38321967 C1.52215376,6.38107839 1.4990755,6.30280265 1.54897925,6.26800683 L1.93440993,5.999276 L1.80492187,5.54758456 C1.7881485,5.48911568 1.85547991,5.44295916 1.90401562,5.47965835 L2.27868041,5.76319971 L2.6682152,5.50047637 C2.71865428,5.46645378 2.78336857,5.51623858 2.76344275,5.5736963 L2.60956788,6.01765533 L2.97977166,6.30696626 C3.02771258,6.34443868 3.00035176,6.42134638 2.93956316,6.42015678 L2.46978978,6.41099685 L2.30907471,6.85257668 Z" id="Shape"></path>
                <path d="M7.60232261,5.81209231 C8.19099659,5.36141203 8.99944932,5.05217529 10.0652722,5.25809519 C10.1387895,5.27231092 10.1854814,5.34636358 10.1688269,5.41940507 L10.1687675,5.41976195 C10.1525889,5.49060268 10.0826404,5.53390415 10.0112643,5.52022374 C8.38942201,5.20997584 7.41484152,6.20751562 6.93293422,6.93733574 C7.16823726,6.74408508 7.48776405,6.53322834 7.78135754,6.51508692 C9.00789548,6.43936883 9.06636436,7.29302639 10.1328415,7.57859007 C11.192419,7.86236935 11.667724,7.47979372 12.3488894,6.78744603 C13.0232147,6.10205751 13.6836811,6.47844722 13.9911929,6.73159428 C14.0462714,6.77691807 14.1262721,6.72243435 14.1059299,6.65409178 C13.1342639,3.38191623 7.90781211,2.34886686 6.68894709,6.82140914 C6.89795995,6.49867043 7.19696612,6.12245916 7.60232261,5.81209231 Z M10.3896763,5.08072571 C10.3720108,5.02249475 10.4386879,4.97532707 10.4876994,5.0113125 L10.8665278,5.28926274 L11.2521369,5.02082931 C11.3020407,4.98609296 11.3675282,5.0348666 11.3484351,5.09262172 L11.2011626,5.53878151 L11.5756489,5.82256079 C11.6241251,5.85931946 11.5979539,5.93658403 11.5371058,5.93634611 L11.067273,5.93414535 L10.9131007,6.37798543 C10.8931154,6.43544315 10.8115088,6.43443199 10.7930105,6.37649842 L10.6499015,5.92897059 L10.1801282,5.91951326 C10.1193395,5.91826418 10.0950717,5.84034533 10.1444401,5.80483574 L10.5258262,5.53045431 L10.3896763,5.08072571 Z" id="Shape"></path>
                <path d="M5.63918382,6.12061528 C5.35005134,5.43796284 5.25286095,4.57782195 5.7188276,3.59735294 C5.75094682,3.52972413 5.83439732,3.50301759 5.90089601,3.53745654 L5.90119341,3.53763498 C5.96572925,3.57100328 5.99017555,3.64957642 5.95906749,3.71530186 C5.25303939,5.208013 5.97506762,6.40112316 6.56118395,7.05022886 C6.43294498,6.77406303 6.30869118,6.41194853 6.36454294,6.12317293 C6.5980021,4.91667975 7.43916886,5.0735881 7.98240008,4.11245011 C8.52218146,3.15755751 8.27064036,2.60165704 7.77065113,1.76899593 C7.2757177,0.944662027 7.80532799,0.399349002 8.12735294,0.164938157 C8.1849891,0.122945247 8.15227508,0.0318813025 8.08101799,0.0343861708 C4.6697781,0.156789391 2.36236883,4.95867266 6.38791859,7.25751681 C6.12769341,6.97427285 5.83826352,6.59068606 5.63918382,6.12061528 Z M5.62818002,3.23886673 C5.56739141,3.24136489 5.53842463,3.165052 5.58553283,3.12656841 L5.94937224,2.82928716 L5.78592109,2.38877797 C5.76474619,2.33173661 5.82838984,2.28058377 5.87954267,2.31353571 L6.27466859,2.56775341 L6.64308797,2.27618225 C6.69079097,2.23841242 6.75907405,2.28314141 6.74360924,2.34196717 L6.6239354,2.79633522 L7.01507616,3.05661988 C7.06575315,3.09034506 7.04434034,3.16909664 6.98361121,3.17254648 L6.51449212,3.19919354 L6.38779963,3.65165822 C6.37138314,3.71024606 6.28989548,3.71423122 6.26782839,3.65754674 L6.09753703,3.21965467 L5.62818002,3.23886673 Z" id="Shape"></path>
                <path d="M8.2970495,7.66965402 C8.90981289,8.08696599 9.45732668,8.75736555 9.59662894,9.83395431 C9.60626471,9.9081854 9.55059139,9.97581421 9.47600341,9.98289233 L9.47564653,9.98295181 C9.4033188,9.9898515 9.34021048,9.93703322 9.33075315,9.86494341 C9.11591124,8.22769577 7.86272623,7.6157651 7.018526,7.3874807 C7.27589614,7.55015861 7.57644879,7.78730554 7.68589207,8.06031893 C8.14299619,9.20102718 7.35095995,9.52465809 7.41478204,10.6268233 C7.47818776,11.7219103 7.9906678,12.0529762 8.86193146,12.4821842 C9.72439207,12.9071096 9.57456184,13.6523946 9.43079858,14.0238474 C9.40504372,14.0903461 9.48189194,14.1492314 9.5404203,14.1084875 C12.3418113,12.1581964 11.6810475,6.87184821 7.05195378,7.11940415 C7.42400144,7.21659454 7.87509808,7.38224645 8.2970495,7.66965402 Z M9.86690625,10.0862092 C9.91663157,10.0511754 9.98235701,10.0996517 9.96356132,10.1575257 L9.81866794,10.6044588 L10.1946413,10.8862752 C10.243296,10.9227365 10.2175411,11.000239 10.156693,11.000239 L9.68686016,11.0005364 L9.5350671,11.4452092 C9.51543868,11.5027858 9.43377258,11.502191 9.41497689,11.444317 L9.26948871,10.9975624 L8.79965586,10.9906032 C8.73880777,10.989711 8.71412356,10.9119111 8.76337303,10.8761041 L9.14333154,10.5997004 L9.00480252,10.150745 C8.98689903,10.092633 9.05327876,10.0451085 9.10246875,10.080856 L9.48278414,10.3567839 L9.86690625,10.0862092 Z" id="Shape"></path>
                <path d="M6.76448674,8.99814076 C6.55339207,9.70886778 6.08141794,10.4344053 5.09821284,10.8946619 C5.03040559,10.9264242 4.9490369,10.8939481 4.91959428,10.8251297 L4.91947532,10.8248323 C4.89092489,10.7580362 4.92203296,10.6818423 4.9877584,10.6509127 C6.48195654,9.94803703 6.68359388,8.56815953 6.64415861,7.6944572 C6.56748884,7.98912132 6.43306394,8.34760754 6.20626654,8.53491019 C5.25874947,9.31742962 4.70945129,8.66142424 3.67895956,9.05756132 C2.65507012,9.45114076 2.4956636,10.0401121 2.35190034,11.0006553 C2.2095646,11.9515628 1.45404911,12.0355486 1.05642503,12.0116376 C0.985227416,12.007355 0.952572873,12.0984785 1.00919787,12.1417799 C3.71940599,14.2169196 8.55406276,11.9789236 6.90967752,7.6446724 C6.93043606,8.02867555 6.90985596,8.50873897 6.76448674,8.99814076 Z M4.94017437,11.2288803 C4.9886506,11.2655794 4.96253887,11.3429035 4.90169078,11.3426656 L4.43185793,11.3406433 L4.27780462,11.7845428 C4.25787881,11.8420005 4.17621271,11.8410488 4.15771442,11.7831153 L4.01448648,11.3356469 L3.5447131,11.3263086 C3.4839245,11.325119 3.45959716,11.2472001 3.5089656,11.211631 L3.89029215,10.9371306 L3.75396389,10.4874615 C3.73629832,10.4292306 3.80291597,10.3820629 3.851987,10.4180483 L4.23093435,10.6958796 L4.61648398,10.4272677 C4.66638774,10.3925314 4.73181578,10.441305 4.71278217,10.4990601 L4.56568803,10.9452794 L4.94017437,11.2288803 Z" id="Shape"></path>
            </g>
        </g>
    </g>
</svg>