<?xml version="1.0" encoding="UTF-8"?>
<svg width="72px" height="122px" viewBox="0 0 72 122" version="1.1" xmlns="http://www.w3.org/2000/svg" xmlns:xlink="http://www.w3.org/1999/xlink">
    <!-- Generator: Sketch 61.2 (89653) - https://sketch.com -->
    <title>Group</title>
    <desc>Created with Sketch.</desc>
    <g id="Symbols" stroke="none" stroke-width="1" fill="none" fill-rule="evenodd">
        <g id="chhose-caregive" transform="translate(-435.000000, -200.000000)">
            <g id="Group-4">
                <g id="Group-2" transform="translate(320.000000, 181.000000)">
                    <g id="Group" transform="translate(115.000000, 20.000000)">
                        <path d="M53.7266252,61.0392038 C52.3125829,67.0717027 49.1416674,72.1482866 44.9653608,75.328065 L44.9653608,85.1321823 L35.6036516,99.5303532 L25.6844331,85.1321823 L25.6844331,76.0705867 C20.8961304,72.9110589 17.2598973,67.3441058 15.7846119,60.6376759 C15.4875497,60.7918417 15.1562698,60.880683 14.8055925,60.880683 C13.5425878,60.880683 12.5186713,59.7625455 12.5186713,58.38311 L12.5186713,51.1667135 C12.5186713,49.7872781 13.5425878,48.6684873 14.8055925,48.6684873 C15.0422833,48.6684873 15.2702562,48.7081175 15.4851523,48.7810632 C15.515229,48.6001143 15.4664088,48.9108411 15.4997548,48.7311988 C23.0723344,46.0775002 31.2259617,37.4448689 33.5734723,29.9499723 C36.7613877,37.9611501 46.0001747,46.6787033 54.1546737,49.0144893 C54.2723653,48.9946742 54.3904927,48.9811738 54.5110176,48.9811738 C55.7738044,48.9811738 56.7981568,50.0993114 56.7981568,51.4789646 L56.7981568,58.6953611 C56.7981568,60.0747965 55.7738044,61.1933696 54.5110176,61.1933696 C54.2350963,61.1933696 53.971598,61.1371905 53.7266252,61.0392038 Z M44.931361,107.367332 L35.858214,101.826945 C41.3963626,89.8592438 44.8514918,84.2943231 46.2236015,85.1321823 C47.5957112,85.9700415 47.1649644,93.3817582 44.931361,107.367332 Z M26.1251226,107.44006 C23.5325211,94.1920522 23.0623579,87.0635791 24.7146329,86.0546409 C26.3669078,85.0457028 29.8614534,90.32738 35.1982695,101.899672 L26.1251226,107.44006 Z M16.1457506,6.15552672 C21.0996932,3.59023399 27.649882,2.17748301 34.5893247,2.17748301 C47.1260905,2.17748301 61.1590647,7.05809343 62.5207996,17.7669549 L57.5383059,36.7136701 C55.5462674,33.8036818 52.6612987,31.3805787 49.0675653,29.6218256 C44.9195919,27.591976 40.0388796,26.5189123 34.952425,26.5189123 C25.3487942,26.5189123 17.1195392,30.2430615 12.8105028,36.3850879 L7.05189864,17.4298805 C7.87530362,11.5842096 12.4375949,8.07563124 16.1457506,6.15552672 Z M66.8174131,70.1791887 C67.3899607,57.0450467 64.1828659,46.9574211 58.9508225,39.9115216 L64.7329649,17.9241692 L64.7102984,17.722752 C64.0884947,12.1605894 60.504133,7.52625228 54.3453776,4.32034404 C48.9932452,1.53447228 41.9768671,0 34.5893247,0 C27.3072688,0 20.4009541,1.4994148 15.142757,4.22213956 C9.09014199,7.3564086 5.53411349,11.9090901 4.85913064,17.3880728 L4.83101543,17.6167086 L11.6499333,40.0622034 C6.48349202,47.101135 3.32587123,57.138243 3.89427785,70.1791887 C4.54397881,76.3118519 9.66879212,80.7105853 16.7383494,83.3769132 C7.03402696,89.9953728 0.193096438,102.202125 1.0542063,120 L70.9080663,120 C71.7826889,101.921883 64.7107343,89.6123536 54.7629647,83.0683639 C61.4223451,80.3767771 66.1921222,76.0808209 66.8174131,70.1791887 Z" id="Fill-6" stroke="#08A0E9" stroke-width="2"></path>
                        <path d="M28.4782642,18.3972603 L31.4150943,18.3972603 L31.4150943,20.369863 C31.4150943,21.8225753 32.6316226,23 34.1320755,23 L35.7169811,23 C37.2176604,23 38.4339623,21.8225753 38.4339623,20.369863 L38.4339623,18.3972603 L41.4837736,18.3972603 C42.8630943,18.3972603 43.9811321,17.0672877 43.9811321,15.4263014 L43.9811321,14.6835068 C43.9811321,13.0425205 42.8630943,11.7123288 41.4837736,11.7123288 L38.4339623,11.7123288 L38.4339623,9.63013699 C38.4339623,8.17764384 37.2176604,7 35.7169811,7 L34.1320755,7 C32.6316226,7 31.4150943,8.17764384 31.4150943,9.63013699 L31.4150943,11.7123288 L28.4782642,11.7123288 C27.0991698,11.7123288 25.9811321,13.0425205 25.9811321,14.6835068 L25.9811321,15.4263014 C25.9811321,17.0672877 27.0991698,18.3972603 28.4782642,18.3972603" id="Fill-7" fill="#08A0E9"></path>
                    </g>
                </g>
            </g>
        </g>
    </g>
</svg>