<?xml version="1.0" encoding="UTF-8"?>
<svg width="122px" height="122px" viewBox="0 0 122 122" version="1.1" xmlns="http://www.w3.org/2000/svg" xmlns:xlink="http://www.w3.org/1999/xlink">
    <!-- Generator: Sketch 61.2 (89653) - https://sketch.com -->
    <title>Fill 4</title>
    <desc>Created with Sketch.</desc>
    <g id="Symbols" stroke="none" stroke-width="1" fill="none" fill-rule="evenodd">
        <g id="chhose-caregive" transform="translate(-750.000000, -439.000000)" fill="#08A0E9" stroke="#FFFFFF" stroke-width="1.5">
            <g id="Group-4">
                <g id="Group-2" transform="translate(320.000000, 181.000000)">
                    <g id="Group-3" transform="translate(341.000000, 242.000000)">
                        <path d="M189.327461,127.309481 L210,127.309481 L210,123.787018 L189.327461,123.787018 L189.327461,127.309481 Z M127.483298,100.355147 L126.902403,131.198722 L119.626567,131.198722 L120.227494,103.310494 L114.939119,89.3282936 L111.7782,89.8126324 L110.857439,105.901266 L101.028436,132.221778 L94.3660737,129.171544 L103.594151,102.257498 L103.86842,99.531771 L105.922577,77.2284098 L118.052051,77.2262082 L127.483298,100.355147 Z M108.322982,51.1656989 L118.452889,62.3669142 L117.601686,73.7039644 L106.247033,73.7059458 L108.322982,51.1656989 Z M109.845109,45.5110435 C110.451319,45.0093125 111.225259,44.73412 112.008885,44.73412 C112.115423,44.73412 112.222181,44.7391836 112.32894,44.7495308 L116.423826,45.1455878 C118.242234,45.321711 119.610278,46.947108 119.473584,48.7688823 L118.816747,57.5184627 L108.969253,46.6292056 C109.179247,46.2018867 109.475088,45.8170575 109.845109,45.5110435 Z M121.941125,62.9463595 L139.327498,62.8382639 L139.305486,59.3157999 L122.205709,59.4223544 L122.985593,49.0326268 C123.264485,45.3151064 120.473147,41.9987066 116.76303,41.6396354 L112.667924,41.2433582 C110.851937,41.0676753 109.005132,41.6339114 107.599888,42.796985 C106.194424,43.9600586 105.292374,45.6688939 105.125083,47.4856047 L105.122662,47.5131239 L105.066091,47.5641997 L105.113197,47.6163762 L100.362574,99.1936144 L100.130568,101.499948 L90,131.046375 L103.00379,137 L114.343255,106.634599 L114.786796,98.8814361 L116.691711,103.917459 L116.02783,134.721186 L130.358502,134.721186 L131.0182,99.6964462 L121.022566,75.1833993 L121.941125,62.9463595 Z M180.008915,97.4968876 C178.045227,94.1730025 175.329391,91.3750654 172.064576,89.3197076 L193.273326,89.301655 L202.670015,118.864594 L195.577759,118.864594 L189.467457,97.4968876 L180.008915,97.4968876 Z M159.124621,130.598802 C147.687643,130.598802 138.383184,121.292673 138.383184,109.853911 C138.383184,98.4153701 147.687643,89.1094606 159.124621,89.1094606 C162.067841,89.1094606 164.911347,89.7131228 167.575895,90.9037156 C172.047847,92.9018333 175.631395,96.3760836 177.766776,100.751864 L177.766776,101.019352 L177.892904,101.019352 C178.003184,101.253595 178.112584,101.48828 178.214499,101.727147 C179.310255,104.298545 179.865837,107.032858 179.865837,109.853911 C179.865837,121.292673 170.561379,130.598802 159.124621,130.598802 Z M154.670499,62.1311292 L155.660377,62.0769713 C157.544602,61.9739393 159.005976,62.9298479 159.056384,63.8529536 L159.059906,63.9185595 L161.895047,85.7441866 C160.98111,85.6407142 160.057268,85.5869966 159.124621,85.5869966 C157.476145,85.5869966 155.865749,85.7529927 154.308622,86.0680331 L151.486246,64.2184093 C151.484267,63.3054306 152.820173,62.2324001 154.670499,62.1311292 Z M192.922015,122.387058 L207.485133,122.387058 L195.848506,85.7769895 L165.454162,85.8029677 L162.568393,63.5876681 C162.355537,60.5565878 159.255372,58.3515254 155.467993,58.5597911 L154.477894,58.613949 C150.66168,58.8226549 147.803426,61.3900909 147.970937,64.4585973 L147.974459,64.5235427 L150.881799,87.0298859 C149.821483,87.4140546 148.795725,87.870654 147.809809,88.3928593 L144.255757,58.5692577 L140.758716,58.9862294 L144.513297,90.4935688 C138.654152,94.9276904 134.86127,101.955887 134.86127,109.853911 C134.86127,123.235091 145.745747,134.121266 159.124621,134.121266 C172.503274,134.121266 183.387752,123.235091 183.387752,109.853911 C183.387752,106.800155 182.829088,103.832259 181.72827,101.019352 L186.811713,101.019352 L192.922015,122.387058 Z M159.124621,112.514252 C157.658404,112.514252 156.465575,111.321018 156.465575,109.854572 C156.465575,108.388346 157.658404,107.195332 159.124621,107.195332 C160.590838,107.195332 161.783666,108.388346 161.783666,109.854572 C161.783666,111.321018 160.590838,112.514252 159.124621,112.514252 Z M159.124621,103.672868 C155.716508,103.672868 152.94366,106.445927 152.94366,109.854572 C152.94366,113.263436 155.716508,116.036716 159.124621,116.036716 C162.532734,116.036716 165.305581,113.263436 165.305581,109.854572 C165.305581,106.445927 162.532734,103.672868 159.124621,103.672868 Z M115.534542,20.522464 C119.661346,20.522464 123.018831,23.8802527 123.018831,28.0076999 C123.018831,32.1349269 119.661346,35.4929358 115.534542,35.4929358 C111.407959,35.4929358 108.050694,32.1349269 108.050694,28.0076999 C108.050694,23.8802527 111.407959,20.522464 115.534542,20.522464 Z M115.534542,39.0153998 C121.603462,39.0153998 126.540746,34.0773456 126.540746,28.0076999 C126.540746,21.937834 121.603462,17 115.534542,17 C109.465843,17 104.528779,21.937834 104.528779,28.0076999 C104.528779,34.0773456 109.465843,39.0153998 115.534542,39.0153998 Z M153.442452,38.4535668 C157.569035,38.4535668 160.9263,41.8115757 160.9263,45.9388027 C160.9263,50.0662498 157.569035,53.4240386 153.442452,53.4240386 C149.315648,53.4240386 145.958163,50.0662498 145.958163,45.9388027 C145.958163,41.8115757 149.315648,38.4535668 153.442452,38.4535668 Z M153.442452,56.9465026 C159.510931,56.9465026 164.448215,52.0086686 164.448215,45.9388027 C164.448215,39.869157 159.510931,34.9311028 153.442452,34.9311028 C147.373532,34.9311028 142.436248,39.869157 142.436248,45.9388027 C142.436248,52.0086686 147.373532,56.9465026 153.442452,56.9465026 L153.442452,56.9465026 Z" id="Fill-4"></path>
                    </g>
                </g>
            </g>
        </g>
    </g>
</svg>