<?xml version="1.0" encoding="UTF-8"?>
<svg width="60px" height="60px" viewBox="0 0 60 60" version="1.1" xmlns="http://www.w3.org/2000/svg" xmlns:xlink="http://www.w3.org/1999/xlink">
    <!-- Generator: Sketch 62 (91390) - https://sketch.com -->
    <title>003-feedback</title>
    <desc>Created with Sketch.</desc>
    <g id="Landing-page" stroke="none" stroke-width="1" fill="none" fill-rule="evenodd">
        <g id="Caregiver-landing-step-1" transform="translate(-893.000000, -2741.000000)" fill="#08A0E9" fill-rule="nonzero">
            <g id="003-feedback" transform="translate(893.000000, 2741.000000)">
                <path d="M19.1580469,14.4017578 C19.0546875,14.0835937 18.7796484,13.8516797 18.4485937,13.8036328 L12.879375,12.9943359 L10.3886719,7.94777344 C10.2405469,7.64777344 9.93503906,7.4578125 9.60046875,7.4578125 C9.26589844,7.4578125 8.96039062,7.64777344 8.81226563,7.94777344 L6.32167969,12.9943359 L0.752460937,13.8036328 C0.42140625,13.8516797 0.146367187,14.0835937 0.0430078125,14.4017578 C-0.0603515625,14.7199219 0.0258984375,15.0692578 0.265429687,15.3026953 L4.29539062,19.2309375 L3.3440625,24.7776562 C3.28757812,25.1074219 3.42304687,25.4407031 3.69375,25.6372266 C3.84691406,25.7485547 4.02820312,25.8051898 4.21042969,25.8051898 C4.35023437,25.8051898 4.49074219,25.7717578 4.61929687,25.7042578 L9.60046875,23.0854688 L14.5817578,25.7042578 C14.878125,25.8598828 15.2369531,25.8339844 15.5073047,25.6373438 C15.7780078,25.4407031 15.9134766,25.1075391 15.8569922,24.7777734 L14.9056641,19.2310547 L18.9355078,15.3028125 C19.1751562,15.0692578 19.2614062,14.7200391 19.1580469,14.4017578 Z M13.3478906,18.2947266 C13.1407031,18.4966406 13.04625,18.7876172 13.0951172,19.0727344 L13.8235547,23.3196094 L10.0095703,21.3145312 C9.88148437,21.2472656 9.74097656,21.2136328 9.60058594,21.2136328 C9.46019531,21.2136328 9.3196875,21.2472656 9.19160156,21.3145312 L5.37773438,23.3196094 L6.10617188,19.0727344 C6.15503906,18.7876172 6.06058594,18.4966406 5.85339844,18.2947266 L2.76785156,15.2869922 L7.03195313,14.6673047 C7.31824219,14.6257031 7.565625,14.4459375 7.69371094,14.1864844 L9.60070313,10.3224609 L11.5076953,14.1864844 C11.6357813,14.4458203 11.8831641,14.6257031 12.1694531,14.6673047 L16.4335547,15.2869922 L13.3478906,18.2947266 Z" id="Shape"></path>
                <path d="M59.9569922,14.4017578 C59.8536328,14.0835937 59.5785938,13.8516797 59.2475391,13.8036328 L53.6783203,12.9943359 L51.1877344,7.94777344 C51.0396094,7.64777344 50.7341016,7.4578125 50.3995313,7.4578125 C50.0649609,7.4578125 49.7594531,7.64777344 49.6113281,7.94777344 L47.1207422,12.9943359 L41.5515234,13.8036328 C41.2204688,13.8516797 40.9454297,14.0835937 40.8420703,14.4017578 C40.7387109,14.7199219 40.8249609,15.0692578 41.0644922,15.3026953 L45.0943359,19.2309375 L44.1430078,24.7776562 C44.0865234,25.1074219 44.2219922,25.4407031 44.4926953,25.6372266 C44.7633984,25.8338672 45.1219922,25.8598828 45.4182422,25.7041406 L50.3995313,23.0853516 L55.3807031,25.7041406 C55.509375,25.7717578 55.6497656,25.8051215 55.7895703,25.8051215 C55.9717969,25.8051215 56.1532031,25.7484375 56.30625,25.6371094 C56.5769531,25.4404687 56.7124219,25.1073047 56.6559375,24.7775391 L55.7046094,19.2308203 L59.7345703,15.3025781 C59.9741016,15.0692578 60.0603516,14.7200391 59.9569922,14.4017578 L59.9569922,14.4017578 Z M54.1468359,18.2947266 C53.9396484,18.4966406 53.8450781,18.7876172 53.8940625,19.0727344 L54.6225,23.3196094 L50.8086328,21.3145312 C50.5524609,21.18 50.2467187,21.18 49.9906641,21.3145312 L46.1766797,23.3196094 L46.9051172,19.0727344 C46.9539844,18.7876172 46.8595312,18.4966406 46.6523438,18.2947266 L43.5667969,15.2869922 L47.8308984,14.6673047 C48.1171875,14.6257031 48.3645703,14.4459375 48.4926563,14.1864844 L50.3996484,10.3224609 L52.3066406,14.1864844 C52.4347266,14.4458203 52.6821094,14.6257031 52.9683984,14.6673047 L57.2325,15.2869922 L54.1468359,18.2947266 Z" id="Shape"></path>
                <path d="M24.6948047,11.773125 L23.7434766,17.3199609 C23.6869922,17.6496094 23.8224609,17.9828906 24.0931641,18.1795312 C24.36375,18.3760547 24.7225781,18.4020703 25.0187109,18.2464453 L30,15.6275391 L34.9811719,18.2463281 C35.1098438,18.3139453 35.2502344,18.3473398 35.3900391,18.3473398 C35.5722656,18.3473398 35.7536719,18.290625 35.9067187,18.1794141 C36.1774219,17.9827734 36.3128906,17.6494922 36.2564062,17.3198437 L35.3050781,11.7730078 L39.3349219,7.84476563 C39.5744531,7.61121094 39.6607031,7.26199219 39.5573437,6.94382813 C39.4539844,6.62566406 39.1789453,6.39375 38.8478906,6.34570313 L33.2786719,5.53640625 L30.7882031,0.489960938 C30.6400781,0.189960938 30.3345703,1.66533454e-15 30,1.66533454e-15 C29.6654297,1.66533454e-15 29.3599219,0.189960938 29.2117969,0.489960938 L26.7212109,5.53652344 L21.1519922,6.34582031 C20.8209375,6.39386719 20.5458984,6.62578125 20.4425391,6.94394531 C20.3391797,7.26210938 20.4254297,7.61144531 20.6649609,7.84488281 L24.6948047,11.773125 Z M27.43125,7.20960937 C27.7175391,7.16800781 27.9649219,6.98824219 28.0930078,6.72878906 L30,2.86476562 L31.9069922,6.72878906 C32.0350781,6.988125 32.2824609,7.16800781 32.56875,7.20960937 L36.8328516,7.82929687 L33.7473047,10.8370312 C33.5401172,11.0389453 33.4456641,11.3299219 33.4945313,11.6149219 L34.2228516,15.8619141 L30.4089844,13.8568359 C30.2808984,13.7895703 30.1403906,13.7559375 30,13.7559375 C29.8594922,13.7559375 29.7191016,13.7895703 29.5910156,13.8568359 L25.7771484,15.8619141 L26.5054687,11.6149219 C26.5543359,11.3298047 26.4598828,11.0389453 26.2526953,10.8370313 L23.1671484,7.82929688 L27.43125,7.20960937 Z" id="Shape"></path>
                <path d="M46.3757813,33.4108594 C45.6771094,33.4108594 45.0241406,33.6108984 44.4713672,33.9566016 C44.1604687,32.2848047 42.6909375,31.0150781 40.9304297,31.0150781 C40.2297656,31.0150781 39.5750391,31.2162891 39.0212109,31.5638672 C38.7002344,29.9046094 37.2365625,28.6475391 35.4849609,28.6475391 C34.8116016,28.6475391 34.1808984,28.8332812 33.64125,29.1561328 L33.64125,23.9626172 C33.64125,21.9767578 32.0255859,20.3610937 30.0396094,20.3610937 C28.0536328,20.3610937 26.4379687,21.9767578 26.4379687,23.9627344 L26.4379687,30.7569141 C26.4379687,31.2423047 26.8314844,31.6358203 27.316875,31.6358203 C27.8022656,31.6358203 28.1957812,31.2423047 28.1957812,30.7569141 L28.1957812,23.9627344 C28.1957812,22.9460156 29.0228906,22.1189062 30.0396094,22.1189062 C31.0563281,22.1189062 31.8834375,22.9460156 31.8834375,23.9626172 L31.8834375,38.76 C31.8834375,39.2453906 32.2769531,39.6389062 32.7623437,39.6389062 C33.2477344,39.6389062 33.64125,39.2453906 33.64125,38.76 L33.64125,32.2491797 C33.64125,31.2325781 34.4683594,30.4054687 35.4849609,30.4054687 C36.5016797,30.4054687 37.3287891,31.2325781 37.3287891,32.2491797 L37.3287891,38.76 C37.3287891,39.2453906 37.7223047,39.6389062 38.2076953,39.6389062 C38.6930859,39.6389062 39.0866016,39.2453906 39.0866016,38.76 L39.0866016,34.6168359 C39.0866016,33.6001172 39.9137109,32.7730078 40.9304297,32.7730078 C41.9471484,32.7730078 42.7742578,33.6001172 42.7742578,34.6168359 L42.7742578,38.76 C42.7742578,39.2453906 43.1677734,39.6389062 43.6531641,39.6389062 C44.1385547,39.6389062 44.5320703,39.2453906 44.5320703,38.76 L44.5320703,37.0125 C44.5320703,35.9958984 45.3591797,35.1687891 46.3757812,35.1687891 C47.3925,35.1687891 48.2196094,35.9958984 48.2196094,37.0125 L48.2196094,40.1441016 C48.2196094,40.6294922 48.613125,41.0230078 49.0985156,41.0230078 C49.5839062,41.0230078 49.9774219,40.6294922 49.9774219,40.1441016 L49.9774219,37.0125 C49.9774219,35.0265234 48.3617578,33.4108594 46.3757812,33.4108594 L46.3757813,33.4108594 Z" id="Path"></path>
                <path d="M49.0985156,43.3642969 C48.613125,43.3642969 48.2196094,43.7578125 48.2196094,44.2432031 L48.2196094,47.8161328 C48.2196094,48.7976953 48.0876562,49.7753906 47.8273828,50.7219141 L46.9489453,53.9162109 C46.9280859,53.9921484 46.9174219,54.0705469 46.9174219,54.1492969 L46.9174219,58.2421875 L28.7480859,58.2421875 L28.7480859,52.9654687 C28.7480859,52.7776172 28.6878516,52.5946875 28.5764062,52.4435156 L21.5724609,42.9536719 C21.5464453,42.9183984 21.5177344,42.8851172 21.4867969,42.8540625 C20.7525,42.1196484 20.7525,40.9248047 21.4867969,40.1905078 C22.2212109,39.4560937 23.4159375,39.4560937 24.1503516,40.1905078 L26.6954297,42.7355859 C26.9469141,42.9870703 27.3250781,43.0621875 27.6532031,42.9261328 C27.9816797,42.7900781 28.1957812,42.4695703 28.1957812,42.1141406 L28.1957812,34.8632812 C28.1957812,34.3778906 27.8022656,33.984375 27.316875,33.984375 C26.8314844,33.984375 26.4379687,34.3778906 26.4379687,34.8632812 L26.4379687,39.9923437 L25.3932422,38.9476172 C23.9736328,37.5277734 21.6633984,37.5278906 20.2437891,38.9476172 C18.8407031,40.3507031 18.8244141,42.6233203 20.1945703,44.0469141 L26.9902734,53.2546875 L26.9902734,59.1210937 C26.9902734,59.6064844 27.3837891,60 27.8691797,60 L47.7963281,60 C48.2817187,60 48.6752344,59.6064844 48.6752344,59.1210937 L48.6752344,54.2677734 L49.5222656,51.1878516 C49.824375,50.0894531 49.9774219,48.9549609 49.9774219,47.8160156 L49.9774219,44.2430859 C49.9774219,43.7578125 49.5839062,43.3642969 49.0985156,43.3642969 L49.0985156,43.3642969 Z" id="Path"></path>
            </g>
        </g>
    </g>
</svg>