<?xml version="1.0" encoding="UTF-8"?>
<svg width="21px" height="32px" viewBox="0 0 21 32" version="1.1" xmlns="http://www.w3.org/2000/svg" xmlns:xlink="http://www.w3.org/1999/xlink">
    <!-- Generator: Sketch 59.1 (86144) - https://sketch.com -->
    <title>Female</title>
    <desc>Created with Sketch.</desc>
    <g id="Female" stroke="none" stroke-width="1" fill="none" fill-rule="evenodd">
        <g id="femenine" transform="translate(1.000000, 1.000000)" fill="#000000" fill-rule="nonzero">
            <path d="M16.2206632,17.0023701 C19.9264456,13.1180109 19.9264456,6.79767265 16.2206632,2.91331339 C12.5148809,-0.971104464 6.485175,-0.971104464 2.77933676,2.91331339 C-0.926445588,6.79767265 -0.926445588,13.1180109 2.77933676,17.0023701 C4.34795441,18.6465709 6.33295147,19.5945602 8.38176618,19.8468651 L8.38176618,23.1822004 L6.14546618,23.1822004 C5.52791029,23.1822004 5.02731618,23.7069665 5.02731618,24.3542523 C5.02731618,25.0015381 5.52791029,25.5263042 6.14546618,25.5263042 L8.38176618,25.5263042 L8.38176618,28.8279481 C8.38182206,29.4752339 8.88241618,30 9.50002794,30 C10.1175838,30 10.6181779,29.4752339 10.6181779,28.8279481 L10.6181779,25.5263042 L12.8545338,25.5263042 C13.4720897,25.5263042 13.9726838,25.0015381 13.9726838,24.3542523 C13.9726838,23.7069665 13.4720897,23.1822004 12.8545338,23.1822004 L10.6181779,23.1822004 L10.6181779,19.8469237 C12.6670485,19.5945602 14.6520456,18.6465709 16.2206632,17.0023701 Z M4.36069559,15.3448099 C1.52684559,12.3743968 1.52684559,7.54122807 4.36069559,4.57081501 C7.19448971,1.60051914 11.8053985,1.60034336 14.6393603,4.57081501 C17.4732103,7.54122807 17.4732103,12.3743968 14.6393603,15.3448099 C11.8055103,18.3151644 7.19454559,18.3151644 4.36069559,15.3448099 Z" id="Shape"></path>
        </g>
    </g>
</svg>