<?xml version="1.0" encoding="UTF-8"?>
<svg width="20px" height="18px" viewBox="0 0 20 18" version="1.1" xmlns="http://www.w3.org/2000/svg" xmlns:xlink="http://www.w3.org/1999/xlink">
    <!-- Generator: Sketch 61.2 (89653) - https://sketch.com -->
    <title>portfolio</title>
    <desc>Created with Sketch.</desc>
    <g id="Landing-page" stroke="none" stroke-width="1" fill="none" fill-rule="evenodd">
        <g id="Caregiver-landing-step-1" transform="translate(-572.000000, -526.000000)" fill="#FFFFFF" fill-rule="nonzero">
            <g id="Group-18-Copy" transform="translate(453.000000, 514.000000)">
                <g id="portfolio" transform="translate(119.000000, 12.000000)">
                    <path d="M19.4177246,2.34390258 C19.4165039,2.34390258 19.4152832,2.34375 19.4140625,2.34375 L14.1015625,2.34375 L14.1015625,1.7578125 C14.1015625,0.788574219 13.3129883,0 12.34375,0 L7.65625,0 C6.68701172,0 5.8984375,0.788574219 5.8984375,1.7578125 L5.8984375,2.34375 L0.5859375,2.34375 C0.259704609,2.34375 0,2.61108398 0,2.9296875 L0,15.8203125 C0,16.7895508 0.788574219,17.578125 1.7578125,17.578125 L18.2421875,17.578125 C19.2114258,17.578125 20,16.7895508 20,15.8203125 L20,2.94204711 C20,2.94128418 20,2.94052125 20,2.93975828 C19.9775696,2.55493164 19.7409058,2.34603883 19.4177246,2.34390258 Z M7.0703125,1.7578125 C7.0703125,1.43478395 7.33322145,1.171875 7.65625,1.171875 L12.34375,1.171875 C12.6667786,1.171875 12.9296875,1.43478395 12.9296875,1.7578125 L12.9296875,2.34375 L7.0703125,2.34375 L7.0703125,1.7578125 Z M18.6010742,3.515625 L16.7814636,8.97430422 C16.7016602,9.21401977 16.4782715,9.375 16.2257385,9.375 L12.9296875,9.375 L12.9296875,8.7890625 C12.9296875,8.46542359 12.6673889,8.203125 12.34375,8.203125 L7.65625,8.203125 C7.33261109,8.203125 7.0703125,8.46542359 7.0703125,8.7890625 L7.0703125,9.375 L3.77426148,9.375 C3.52172852,9.375 3.29833984,9.21401977 3.21853637,8.97430422 L1.39892578,3.515625 L18.6010742,3.515625 Z M11.7578125,9.375 L11.7578125,10.546875 L8.2421875,10.546875 L8.2421875,9.375 L11.7578125,9.375 Z M18.828125,15.8203125 C18.828125,16.1433411 18.5652161,16.40625 18.2421875,16.40625 L1.7578125,16.40625 C1.43478395,16.40625 1.171875,16.1433411 1.171875,15.8203125 L1.171875,6.54037477 L2.10678102,9.3449402 C2.34634398,10.0639343 3.01651,10.546875 3.77426148,10.546875 L7.0703125,10.546875 L7.0703125,11.1328125 C7.0703125,11.4564514 7.33261109,11.71875 7.65625,11.71875 L12.34375,11.71875 C12.6673889,11.71875 12.9296875,11.4564514 12.9296875,11.1328125 L12.9296875,10.546875 L16.2257385,10.546875 C16.98349,10.546875 17.653656,10.0639343 17.893219,9.3449402 L18.828125,6.54037477 L18.828125,15.8203125 Z" id="Shape"></path>
                </g>
            </g>
        </g>
    </g>
</svg>