<?xml version="1.0" encoding="UTF-8"?>
<svg width="17px" height="16px" viewBox="0 0 17 16" version="1.1" xmlns="http://www.w3.org/2000/svg" xmlns:xlink="http://www.w3.org/1999/xlink">
    <!-- Generator: Sketch 61.2 (89653) - https://sketch.com -->
    <title>Path</title>
    <desc>Created with Sketch.</desc>
    <g id="Landing-page" stroke="none" stroke-width="1" fill="none" fill-rule="evenodd">
        <g id="Caregiver-landing-step-1" transform="translate(-575.000000, -359.000000)" fill="#FFFFFF">
            <g id="Group-18" transform="translate(456.000000, 345.500000)">
                <path d="M135.194141,27.6581601 L130.874997,23.6323323 C131.647064,22.6285712 132.11069,21.4028504 132.11069,20.1115301 C132.11069,16.7309131 129.177605,14 125.555345,14 C121.92923,14 119,16.7309131 119,20.1115301 C119,23.4885527 121.92923,26.2230603 125.555345,26.2230603 C126.94044,26.2230603 128.255172,25.790823 129.331826,25.0710265 L133.650006,29.097753 C134.03845,29.4554046 134.730515,29.4554046 135.194141,29.097753 C135.656804,28.6655157 135.656804,28.0903974 135.194141,27.6581601 Z M125.555345,24.7834674 C122.780336,24.7834674 120.544135,22.6986637 120.544135,20.1115301 C120.544135,17.5243966 122.780336,15.4395929 125.555345,15.4395929 C128.330355,15.4395929 130.566555,17.5243966 130.566555,20.1115301 C130.566555,22.6986637 128.330355,24.7834674 125.555345,24.7834674 Z" id="Fill-1-Copy"></path>
            </g>
        </g>
    </g>
</svg>