<?xml version="1.0" encoding="UTF-8"?>
<svg width="20px" height="27px" viewBox="0 0 20 27" version="1.1" xmlns="http://www.w3.org/2000/svg" xmlns:xlink="http://www.w3.org/1999/xlink">
    <!-- Generator: Sketch 61.2 (89653) - https://sketch.com -->
    <title>tap</title>
    <desc>Created with Sketch.</desc>
    <g id="Caregiver-Profile-Pages" stroke="none" stroke-width="1" fill="none" fill-rule="evenodd">
        <g id="Caregiver-Profile-Add-A-Review" transform="translate(-582.000000, -703.000000)" fill="#F1F3F3" fill-rule="nonzero">
            <g id="Group-4" transform="translate(443.000000, 691.000000)">
                <g id="Group">
                    <g id="tap" transform="translate(139.000000, 12.000000)">
                        <path d="M17.8166463,10.4785702 L17.7793296,10.4785702 C17.2697713,10.4757332 16.7774528,10.6629714 16.3983939,11.0036226 C16.0915677,10.1545042 15.3118453,9.54412536 14.3985684,9.54412536 C13.8388181,9.54805341 13.3041637,9.7778457 12.9163757,10.1817825 C12.559794,9.45989 11.8444483,8.97019028 11.0219536,8.97019028 L10.9822364,8.97019028 C10.5414193,8.96342525 10.1112954,9.10679994 9.76256983,9.3765276 L9.76256983,4.23009777 C9.76256983,2.98642631 8.79429994,1.97472939 7.61653285,1.97472939 C6.44007508,1.97472939 5.47682436,2.98577162 5.47616972,4.22857017 L5.4663495,14.4393768 L4.88848637,13.7375611 C4.38176503,13.106669 3.63586765,12.7149528 2.82886698,12.6558135 C2.03845145,12.6016934 1.26091128,12.8766585 0.680429497,13.4161139 L0.177636201,13.8327078 C0.0154940782,13.9671351 -0.0307698883,14.1962727 0.0663407821,14.3830744 L4.95482715,23.7796788 C5.8486819,25.4969012 7.54931911,26.5681739 9.39311279,26.5681739 L14.9022346,26.5681739 L14.9022346,26.5633729 C17.6955307,26.5633729 19.9602828,24.1395339 19.9632758,21.1633642 C19.9642109,19.8317475 19.9591917,18.8392545 19.9600646,18.0348726 C19.9629016,15.8827252 19.9607193,15.0885999 19.9552636,12.7175716 C19.9524267,11.4767371 18.99114,10.4785702 17.8166463,10.4785702 Z M19.0596631,18.0318174 C19.0587902,18.8364176 19.0574808,19.8328387 19.0561715,21.1644553 C19.0537709,23.6485248 17.1785527,25.6741009 14.8760475,25.6741009 L9.39333101,25.6741009 C7.88407821,25.6741009 6.48721196,24.7870112 5.74807961,23.3667947 L1.02588162,14.2927287 L1.25894726,14.0982891 C1.26483939,14.0934882 1.2705133,14.0878142 1.27618715,14.082795 C1.67706877,13.7054818 2.21652408,13.5116969 2.76579955,13.5477042 C3.32729575,13.5906949 3.84536486,13.8652235 4.19649095,14.3053858 L5.56455134,15.9700157 C5.68413933,16.1160091 5.8827252,16.1707839 6.0603614,16.10728 C6.23799754,16.0437762 6.35671263,15.8753055 6.35671263,15.686758 L6.36478704,4.22900665 C6.36522346,3.47874475 6.93261173,2.86836592 7.61696927,2.86836592 C8.30132682,2.86836592 8.86871508,3.47939944 8.86871508,4.23009777 L8.86871508,11.1384864 C8.86871508,11.1624913 8.86762397,11.1867144 8.86762397,11.2111558 C8.86762397,11.2216306 8.86871508,11.2323237 8.86871508,11.2425803 L8.86871508,14.1962727 C8.86871508,14.4430866 9.06882855,14.6432001 9.31564246,14.6432001 C9.56245637,14.6432001 9.76256983,14.4430866 9.76256983,14.1962727 L9.76256983,11.153544 C9.76256983,10.4296875 10.3155552,9.86404503 10.9822364,9.86404503 L11.0219536,9.86404503 C11.7067475,9.86404503 12.2765363,10.4608939 12.2765363,11.2115922 L12.2765363,13.9143244 C12.2765363,14.1611383 12.4766498,14.3612517 12.7234637,14.3612517 C12.9702776,14.3612517 13.1703911,14.1611383 13.1703911,13.9143244 L13.1703911,11.7938198 C13.1703911,11.0429033 13.7129016,10.432088 14.4014054,10.432088 C15.0859811,10.432088 15.6284916,11.042685 15.6284916,11.7938198 L15.6284916,13.7942999 C15.6284916,14.0411139 15.8286051,14.2412273 16.075419,14.2412273 C16.3222329,14.2412273 16.5223464,14.0411139 16.5223464,13.7942999 L16.5223464,12.7110248 C16.5223464,11.9601083 17.0945356,11.3724249 17.7793296,11.3724249 L17.8166463,11.3724249 C18.4996945,11.3724249 19.0563897,11.9701466 19.0581355,12.7186627 C19.0635911,15.0879452 19.0625,15.8811977 19.0596631,18.0318174 Z" id="Shape"></path>
                        <path d="M4.05638966,4.42300978 C4.30320358,4.42300978 4.50331704,4.22289631 4.50331704,3.9760824 C4.51051849,2.27064419 5.89516413,0.892108939 7.60038408,0.892108939 C9.30582229,0.892108939 10.6902497,2.27064419 10.6974511,3.9760824 C10.6974511,4.22289631 10.8975646,4.42300978 11.1443785,4.42300978 C11.3911924,4.42300978 11.5913059,4.22289631 11.5913059,3.9760824 C11.5830133,1.77767106 9.79879542,0 7.60038408,0 C5.40219101,0 3.61775486,1.77767106 3.60946229,3.9760824 C3.60946229,4.22289631 3.80957575,4.42300978 4.05638966,4.42300978 Z" id="Path"></path>
                    </g>
                </g>
            </g>
        </g>
    </g>
</svg>