<?xml version="1.0" encoding="UTF-8"?>
<svg width="32px" height="32px" viewBox="0 0 32 32" version="1.1" xmlns="http://www.w3.org/2000/svg" xmlns:xlink="http://www.w3.org/1999/xlink">
    <!-- Generator: Sketch 59.1 (86144) - https://sketch.com -->
    <title>Male</title>
    <desc>Created with Sketch.</desc>
    <g id="Male" stroke="none" stroke-width="1" fill="none" fill-rule="evenodd">
        <g id="Shape-2" transform="translate(1.000000, 1.000000)" fill="#101010" fill-rule="nonzero">
            <path d="M29.9838257,1.08886719 C29.9700928,0.981140156 29.9462891,0.877380391 29.9069214,0.780029297 C29.9057007,0.777587891 29.9057007,0.774230938 29.9050903,0.771179219 C29.9050903,0.770568828 29.90448,0.769958516 29.9038696,0.769348125 C29.8605347,0.666809063 29.8013305,0.573730469 29.734497,0.487365703 C29.7180176,0.466918906 29.7018433,0.446777344 29.6844483,0.42755125 C29.6130371,0.346984844 29.5355225,0.272521953 29.4454956,0.211792031 C29.4430542,0.209960938 29.4400024,0.209350625 29.437561,0.207519531 C29.3505859,0.150146484 29.2544555,0.106811563 29.1537476,0.072631875 C29.1287231,0.0637817188 29.1043091,0.0561523438 29.0786743,0.0494384375 C28.9730835,0.0207519531 28.8644409,0 28.75,0 L20,0 C19.3099976,0 18.75,0.559997578 18.75,1.25 C18.75,1.94000242 19.3099976,2.5 20,2.5 L25.7318116,2.5 L18.2711792,9.96063234 C16.2817383,8.36944578 13.8323975,7.5 11.25,7.5 C5.04699703,7.5 0,12.546997 0,18.75 C0,24.953003 5.04699703,30 11.25,30 C17.453003,30 22.5,24.953003 22.5,18.75 C22.5,16.1688233 21.6311645,13.7200928 20.0387573,11.7288208 L27.5,4.26757813 L27.5,10 C27.5,10.6900024 28.0599976,11.25 28.75,11.25 C29.4400024,11.25 30,10.6900024 30,10 L30,1.25 C30,1.22375484 29.9938965,1.19873047 29.9923706,1.1730957 C29.9905395,1.14440922 29.9874878,1.11694336 29.9838257,1.08886719 Z M11.25,27.5 C6.4248657,27.5 2.5,23.5751343 2.5,18.75 C2.5,13.9248657 6.4248657,10 11.25,10 C13.5861206,10 15.7855225,10.9094238 17.43927,12.557373 C19.0905762,14.2144775 20,16.4138794 20,18.75 C20,23.5751343 16.0751343,27.5 11.25,27.5 Z" id="Shape"></path>
        </g>
    </g>
</svg>