<?xml version="1.0" encoding="UTF-8"?>
<svg width="18px" height="18px" viewBox="0 0 18 18" version="1.1" xmlns="http://www.w3.org/2000/svg" xmlns:xlink="http://www.w3.org/1999/xlink">
    <!-- Generator: Sketch 61.2 (89653) - https://sketch.com -->
    <title>male</title>
    <desc>Created with Sketch.</desc>
    <g id="Caregiver-Profile-Pages" stroke="none" stroke-width="1" fill="none" fill-rule="evenodd">
        <g id="Caregiver-Profile-Page-Overview" transform="translate(-611.000000, -173.000000)" fill="#9BA5B8" fill-rule="nonzero">
            <g id="Group" transform="translate(345.000000, 136.000000)">
                <g id="male" transform="translate(266.000000, 37.000000)">
                    <path d="M17.9902954,0.653320312 C17.9820557,0.588684094 17.9677734,0.526428234 17.9441528,0.468017578 C17.9434204,0.466552734 17.9434204,0.464538562 17.9430542,0.462707531 C17.9430542,0.462341297 17.942688,0.461975109 17.9423218,0.461608875 C17.9163208,0.400085437 17.8807983,0.344238281 17.8406982,0.292419422 C17.8308105,0.280151344 17.821106,0.268066406 17.810669,0.25653075 C17.7678223,0.208190906 17.7213135,0.163513172 17.6672974,0.127075219 C17.6658325,0.125976562 17.6640015,0.125610375 17.6625366,0.124511719 C17.6103516,0.0900878906 17.5526733,0.0640869375 17.4922485,0.043579125 C17.4772339,0.0382690312 17.4625854,0.0336914062 17.4472046,0.0296630625 C17.3838501,0.0124511719 17.3186646,-1.22124533e-15 17.25,-1.22124533e-15 L12,-1.22124533e-15 C11.5859985,-1.22124533e-15 11.25,0.335998547 11.25,0.75 C11.25,1.16400145 11.5859985,1.5 12,1.5 L15.4390869,1.5 L10.9627075,5.97637941 C9.76904297,5.02166747 8.2994385,4.5 6.75,4.5 C3.02819822,4.5 0,7.52819822 0,11.25 C0,14.9718018 3.02819822,18 6.75,18 C10.4718018,18 13.5,14.9718018 13.5,11.25 C13.5,9.70129397 12.9786987,8.23205569 12.0232544,7.03729247 L16.5,2.56054687 L16.5,6 C16.5,6.41400145 16.8359985,6.75 17.25,6.75 C17.6640015,6.75 18,6.41400145 18,6 L18,0.75 C18,0.734252906 17.9963379,0.719238281 17.9954224,0.703857422 C17.9943237,0.686645531 17.9924927,0.670166016 17.9902954,0.653320312 Z M6.75,16.5 C3.85491942,16.5 1.5,14.1450806 1.5,11.25 C1.5,8.35491942 3.85491942,6 6.75,6 C8.15167238,6 9.4713135,6.5456543 10.463562,7.53442383 C11.4543457,8.5286865 12,9.84832762 12,11.25 C12,14.1450806 9.64508058,16.5 6.75,16.5 Z" id="Shape"></path>
                </g>
            </g>
        </g>
    </g>
</svg>