<?xml version="1.0" encoding="UTF-8"?>
<svg width="60px" height="60px" viewBox="0 0 60 60" version="1.1" xmlns="http://www.w3.org/2000/svg" xmlns:xlink="http://www.w3.org/1999/xlink">
    <!-- Generator: Sketch 62 (91390) - https://sketch.com -->
    <title>002-debit-card</title>
    <desc>Created with Sketch.</desc>
    <g id="Landing-page" stroke="none" stroke-width="1" fill="none" fill-rule="evenodd">
        <g id="Caregiver-landing-step-1" transform="translate(-503.000000, -2741.000000)" fill="#08A0E9" fill-rule="nonzero">
            <g id="002-debit-card" transform="translate(503.000000, 2741.000000)">
                <path d="M49.9733475,10.5883529 L49.9733475,4.99733475 C49.9698494,2.23880597 47.7345416,0.00349813433 44.9760128,0 L4.99733475,0 C2.23880597,0.00349813433 0.00349813433,2.23880597 0,4.99733475 L0,26.9856077 C0.00774588486,29.5379964 1.94246405,31.672608 4.48160981,31.9314699 L8.23860608,41.6840185 C9.23107676,44.2591451 12.1230344,45.5419609 14.6984108,44.5507396 L38.1596482,35.5130597 C36.5385128,39.7475513 36.9997668,44.4977679 39.4044843,48.3414679 L39.978678,49.2597281 L39.978678,58.9685501 C39.978678,59.5207556 40.4259395,59.9680171 40.978145,59.9680171 L58.9685501,59.9680171 C59.5207556,59.9680171 59.9680171,59.5207556 59.9680171,58.9685501 L59.9680171,25.9773954 C59.9585221,22.5209888 58.582506,19.2092551 56.1388093,16.7648088 L49.9733475,10.5883529 Z M49.9733475,16.5656649 L53.0067297,24.4399654 C53.6011627,25.985641 52.8308236,27.719966 51.2853978,28.3148987 L49.5515725,28.9845416 C49.8284248,28.3543777 49.9718483,27.6732409 49.9733475,26.9856077 L49.9733475,16.5656649 Z M1.9989339,26.9856077 L1.9989339,4.99733475 C1.9989339,3.34171778 3.34171778,1.9989339 4.99733475,1.9989339 L44.9760128,1.9989339 C46.6316298,1.9989339 47.9744136,3.34171778 47.9744136,4.99733475 L47.9744136,11.3499467 L47.9656683,11.3499467 L47.9744136,11.3726846 L47.9744136,26.9856077 C47.9666678,27.1600146 47.9439299,27.3329225 47.9064499,27.5033316 L38.7513326,18.3472148 C36.6934302,16.3367871 33.4126799,16.3212953 31.3362873,18.3107342 C29.259395,20.3014226 29.1347115,23.5796742 31.0554371,25.7210321 L34.9583555,29.9840085 L4.99733475,29.9840085 C3.34171778,29.9840085 1.9989339,28.6412246 1.9989339,26.9856077 Z M14.803105,31.9829424 L7.69589552,34.7192331 L6.64445629,31.9829424 L14.803105,31.9829424 Z M13.9795442,42.6849847 C12.4343683,43.280667 10.6990439,42.5103278 10.1036114,40.9651519 L8.41751066,36.5804904 L20.3481477,31.9829424 L20.3481477,31.9769456 L36.7903785,31.9769456 L38.0894357,33.3931903 L13.9795442,42.6849847 Z M57.9690832,57.9690832 L41.9776119,57.9690832 L41.9776119,49.9733475 L57.9690832,49.9733475 L57.9690832,57.9690832 Z M57.9690832,47.9744136 L41.5328491,47.9744136 L41.0993303,47.281783 C38.6623801,43.38736 38.5654318,38.4684835 40.8462154,34.4816098 C41.0621002,34.104311 41.0091285,33.6305637 40.7152852,33.3102345 L32.5249034,24.375 C31.3035548,23.0382129 31.3722681,20.9715652 32.6798207,19.7194829 C33.9878731,18.4671509 36.0555204,18.48764 37.3378365,19.7649587 L53.2645922,35.6879664 L54.6778385,34.2747201 L50.9798108,30.5766924 L52.0052639,30.1769057 C54.5783916,29.1841851 55.8607076,26.2947262 54.8707356,23.7200993 L51.4877898,14.9357843 L54.725563,18.1803038 C56.7944596,20.2487007 57.9610874,23.0517058 57.9690832,25.9773954 L57.9690832,47.9744136 Z" id="Shape"></path>
                <path d="M11.3939232,13.9925373 C12.8291578,13.9925373 13.9925373,12.8291578 13.9925373,11.3939232 L13.9925373,6.59648188 C13.9925373,5.16124733 12.8291578,3.9978678 11.3939232,3.9978678 L6.59648188,3.9978678 C5.16124733,3.9978678 3.9978678,5.16124733 3.9978678,6.59648188 L3.9978678,11.3939232 C3.9978678,12.8291578 5.16124733,13.9925373 6.59648188,13.9925373 L11.3939232,13.9925373 Z M5.99680171,11.3939232 L5.99680171,9.99466951 L7.99573561,9.99466951 L7.99573561,7.99573561 L5.99680171,7.99573561 L5.99680171,6.59648188 C5.99680171,6.26540846 6.26540846,5.99680171 6.59648188,5.99680171 L11.3939232,5.99680171 C11.7249967,5.99680171 11.9936034,6.26540846 11.9936034,6.59648188 L11.9936034,7.99573561 L9.99466951,7.99573561 L9.99466951,9.99466951 L11.9936034,9.99466951 L11.9936034,11.3939232 C11.9936034,11.7249967 11.7249967,11.9936034 11.3939232,11.9936034 L6.59648188,11.9936034 C6.26540846,11.9936034 5.99680171,11.7249967 5.99680171,11.3939232 Z" id="Shape"></path>
                <polygon id="Path" points="4.99733475 16.9909382 8.99520256 16.9909382 8.99520256 18.9898721 4.99733475 18.9898721"></polygon>
                <polygon id="Path" points="4.99733475 22.9877399 8.99520256 22.9877399 8.99520256 24.9866738 4.99733475 24.9866738"></polygon>
                <polygon id="Path" points="22.9877399 22.9877399 26.9856077 22.9877399 26.9856077 24.9866738 22.9877399 24.9866738"></polygon>
                <polygon id="Path" points="10.9941365 16.9909382 14.9920043 16.9909382 14.9920043 18.9898721 10.9941365 18.9898721"></polygon>
                <polygon id="Path" points="16.9909382 16.9909382 20.988806 16.9909382 20.988806 18.9898721 16.9909382 18.9898721"></polygon>
                <polygon id="Path" points="22.9877399 16.9909382 26.9856077 16.9909382 26.9856077 18.9898721 22.9877399 18.9898721"></polygon>
                <polygon id="Path" points="41.9776119 4.99733475 43.9765458 4.99733475 43.9765458 7.99573561 41.9776119 7.99573561"></polygon>
                <polygon id="Path" points="37.9797441 4.99733475 39.978678 4.99733475 39.978678 7.99573561 37.9797441 7.99573561"></polygon>
                <polygon id="Path" points="33.9818763 4.99733475 35.9808102 4.99733475 35.9808102 7.99573561 33.9818763 7.99573561"></polygon>
                <polygon id="Path" points="29.9840085 4.99733475 31.9829424 4.99733475 31.9829424 7.99573561 29.9840085 7.99573561"></polygon>
                <polygon id="Path" points="43.9765458 51.9722814 45.9754797 51.9722814 45.9754797 53.9712154 43.9765458 53.9712154"></polygon>
            </g>
        </g>
    </g>
</svg>