<?xml version="1.0" encoding="UTF-8"?>
<svg width="122px" height="99px" viewBox="0 0 122 99" version="1.1" xmlns="http://www.w3.org/2000/svg" xmlns:xlink="http://www.w3.org/1999/xlink">
    <!-- Generator: Sketch 61.2 (89653) - https://sketch.com -->
    <title>Group Copy 3</title>
    <desc>Created with Sketch.</desc>
    <g id="Symbols" stroke="none" stroke-width="1" fill="none" fill-rule="evenodd">
        <g id="chhose-caregive" transform="translate(-409.000000, -449.000000)">
            <g id="Group-4">
                <g id="Group-2" transform="translate(320.000000, 181.000000)">
                    <g id="Group-2-Copy" transform="translate(0.000000, 242.000000)">
                        <g id="Group-Copy-3" transform="translate(91.000000, 27.000000)">
                            <path d="M69.5569811,30.7426415 L59.1803774,29.0354717 L44.5584906,21.450566 C42.3396226,20.2981132 39.6067925,21.1675472 38.4543396,23.3864151 C37.3018868,25.605283 38.1690566,28.3381132 40.3901887,29.490566 L55.650566,37.4083019 C56.0739623,37.6279245 56.5313208,37.7796226 57.0022642,37.8566038 L68.0875472,39.6792453 C68.3366038,39.72 68.5833962,39.7403774 68.8279245,39.7403774 C71.0060377,39.7403774 72.9260377,38.1645283 73.290566,35.9456604 C73.7615094,33.0656604 71.7735849,31.1071698 69.5569811,30.7426415" id="Fill-4" stroke="#08A0E9" stroke-width="2"></path>
                            <path d="M85.7479245,27.7584906 C87.389434,27.4415094 88.8249057,27.7154717 88.949434,28.3743396 C89.0784906,29.0309434 87.8513208,29.8233962 86.2098113,30.1403774 C84.570566,30.4573585 83.1373585,30.1833962 83.0083019,29.5245283 C82.8837736,28.8679245 84.1109434,28.0777358 85.7479245,27.7584906 Z M83.0128302,31.0324528 L83.0037736,30.9939623 C83.8211321,31.6596226 85.1660377,31.9584906 86.610566,31.68 C88.7411321,31.2679245 90.24,29.7645283 89.9615094,28.3245283 C89.6830189,26.8822642 87.8581132,26.714717 85.7298113,27.1267925 C84.1290566,27.4369811 82.8113208,27.9871698 82.3743396,28.8498113 L76.5690566,29.9750943 C77.0603774,30.5796226 77.4679245,31.2815094 77.6535849,32.069434 L83.0128302,31.0324528 L83.0128302,31.0324528 Z" id="Fill-5" fill="#08A0E9"></path>
                            <path d="M27.5728302,91.2679245 C27.5728302,94.394717 30.1086792,96.9283019 33.2332075,96.9283019 C36.36,96.9283019 38.8935849,94.394717 38.8935849,91.2679245 L38.8935849,74.3003774 C34.9516981,73.5916981 31.1592453,72.3486792 27.5728302,70.7796226 L27.5728302,91.2679245" id="Fill-6" stroke="#08A0E9" stroke-width="2"></path>
                            <path d="M108.310189,27.3690566 C113.542642,26.0603774 116.721509,20.76 115.41283,15.5275472 C114.104151,10.2973585 108.801509,7.11622642 103.569057,8.42490566 C98.3388679,9.73584906 95.16,15.0362264 96.4686792,20.2664151 C97.7773585,25.4988679 103.08,28.6777358 108.310189,27.3690566" id="Fill-7" stroke="#08A0E9" stroke-width="2"></path>
                            <path d="M76.8883019,52.4422642 C77.1939623,54.7177358 79.1366038,56.3683019 81.3713208,56.3683019 C81.5728302,56.3683019 81.7743396,56.354717 81.9781132,56.3298113 L95.9049057,54.4596226 C96.914717,54.3237736 97.8475472,53.8528302 98.5562264,53.1215094 L111.455094,39.7969811 C113.193962,37.9992453 113.148679,35.1328302 111.350943,33.3916981 C109.557736,31.6528302 106.684528,31.7003774 104.950189,33.4958491 L93.1426415,45.6928302 L80.7758491,47.3524528 C78.2966038,47.6830189 76.5577358,49.965283 76.8883019,52.4422642" id="Fill-8" stroke="#08A0E9" stroke-width="2"></path>
                            <path d="M110.266415,29.9728302 L109.790943,29.9388679 C110.09434,30.149434 110.390943,30.3735849 110.662642,30.6362264 C111.964528,31.8950943 112.700377,33.5909434 112.727547,35.4045283 C112.759245,37.2203774 112.08,38.9366038 110.818868,40.2407547 L97.9177358,53.5630189 C97.6483019,53.8415094 97.3562264,54.0928302 97.0483019,54.3192453 L96.9237736,56.010566 L80.3071698,56.1735849 C77.2211321,56.205283 74.5426415,58.3132075 73.7864151,61.3041509 L66.9803774,88.2860377 C66.0633962,91.9245283 68.2709434,95.6173585 71.9071698,96.5320755 C72.4641509,96.674717 73.0211321,96.7403774 73.5713208,96.7403774 C76.6098113,96.7403774 79.3766038,94.6890566 80.1554717,91.6098113 L85.6777358,69.7064151 C105.36,69.5139623 116.4,71.1871698 117.163019,60.7607547 L118.698113,39.7335849 C119.064906,34.709434 115.290566,30.3418868 110.266415,29.9728302" id="Fill-9" stroke="#08A0E9" stroke-width="2"></path>
                            <path d="M111.946415,71.4566038 L90.0249057,71.4566038 C88.2090566,71.4566038 86.7396226,72.9283019 86.7396226,74.7418868 L86.7396226,93.6430189 C86.7396226,95.4588679 88.2090566,96.9283019 90.0249057,96.9283019 L111.946415,96.9283019 C113.757736,96.9283019 115.231698,95.4588679 115.231698,93.6430189 L115.231698,74.7418868 C115.231698,72.9283019 113.757736,71.4566038 111.946415,71.4566038" id="Fill-10" stroke="#08A0E9" stroke-width="2"></path>
                            <path d="M62.5403774,39.5569811 L58.8973585,38.9592453 C58.1909434,38.8415094 57.509434,38.6150943 56.8732075,38.2845283 L41.610566,30.3690566 C40.0007547,29.5335849 38.8098113,28.1207547 38.2618868,26.3909434 C37.7162264,24.6611321 37.8724528,22.8203774 38.7079245,21.210566 C39.4098113,19.8588679 44.4883544,20.9411117 41.610566,20.4223327 C38.7327777,19.9035538 36.1449057,19.4377358 34.3267925,21.9283019 L29.4566038,28.605283 L-1.77635684e-15,46.9901887 C-1.77635684e-15,46.9901887 19.8135849,70.8475472 43.3766038,72.5977358 L46.154717,39.0384906 C46.7811585,36.5190831 47.6971397,36.0971557 48.9026605,37.7727085 C50.1081813,39.4482613 51.0933322,41.3637736 51.8581132,43.5192453 C52.3381132,44.2913208 53.0377358,44.9003774 53.8686792,45.2671698 C60.2445142,48.6075472 62.9637525,49.7449057 62.026394,48.6792453 C60.6203563,47.0807547 59.6354717,45.5456604 59.7690566,43.9607547 C59.9366038,41.9637736 61.2950943,40.5056604 62.5403774,39.5569811" id="Fill-11" stroke="#08A0E9" stroke-width="2"></path>
                            <path d="M69.7698113,40.9766038 C73.1456604,40.9766038 75.8830189,41.7939623 75.8830189,42.7992453 C75.8830189,43.8022642 73.1456604,44.6173585 69.7698113,44.6173585 C66.389434,44.6173585 63.6543396,43.8022642 63.6543396,42.7992453 C63.6543396,41.7939623 66.389434,40.9766038 69.7698113,40.9766038 Z M62.026394,44.1554717 C62.0332075,46.1524528 64.8792453,50.3569811 69.6498113,50.3569811 C73.7864151,50.3569811 77.1418868,47.4860377 77.1418868,43.9449057 C77.1418868,40.4037736 73.7864151,40.2860377 69.6498113,40.2860377 C68.1011321,40.2860377 66.674717,40.3607547 65.4701887,40.5079245 C63.6543396,40.7298113 62.0196226,42.0611321 62.026394,44.1554717 L62.026394,44.1554717 Z" id="Fill-12" fill="#08A0E9"></path>
                            <path d="M47.6807547,9.45962264 C46.9290566,12.2015094 47.3320755,15.2377358 49.1207547,17.7283019 C52.2633962,22.109434 58.365283,23.1124528 62.7464151,19.9675472 C67.1275472,16.8226415 68.130566,10.7230189 64.9856604,6.34188679 C62.5449057,2.94339623 58.3313208,1.60754717 54.5162264,2.6354717 C54.1041509,1.88603774 53.52,1.24754717 52.8,0.79245283 C52.0188679,0.296603774 51.0973585,0 50.1056604,0 C47.3139623,0 45.0520755,2.26188679 45.0520755,5.05132075 C45.0520755,6.04075472 45.3464151,6.9554717 45.8354717,7.73433962 C46.2928302,8.45886792 46.9290566,9.04528302 47.6807547,9.45962264" id="Fill-13" stroke="#08A0E9" stroke-width="2"></path>
                        </g>
                    </g>
                </g>
            </g>
        </g>
    </g>
</svg>