<?xml version="1.0" encoding="UTF-8"?>
<svg width="129px" height="70px" viewBox="0 0 129 70" version="1.1" xmlns="http://www.w3.org/2000/svg" xmlns:xlink="http://www.w3.org/1999/xlink">
    <!-- Generator: Sketch 61.2 (89653) - https://sketch.com -->
    <title>003-speed</title>
    <desc>Created with Sketch.</desc>
    <g id="Landing-page" stroke="none" stroke-width="1" fill="none" fill-rule="evenodd">
        <g id="Caregiver-landing-step-1" transform="translate(-967.000000, -1290.000000)" fill="#08A0E9" fill-rule="nonzero">
            <g id="Group-17" transform="translate(113.000000, 1237.000000)">
                <g id="003-speed" transform="translate(854.000000, 53.000000)">
                    <path d="M91.8069406,-5.54223334e-13 C96.4308828,0.00553547001 100.177947,3.75036972 100.183486,8.37155963 L100.183486,8.37155963 L100.183505,24.9733732 C99.0329883,25.1550534 97.9134379,25.4337884 96.8329573,25.8012225 L96.832868,12.8670872 L73.0920622,25.8095183 L84.4560947,37.1670076 C83.9515909,38.2859903 83.5377098,39.4572376 83.2241808,40.6707178 L70.0279218,27.4804817 L62.4538492,31.6076606 C61.9536772,31.8804285 61.3490751,31.8804285 60.8489031,31.6076606 L60.8489031,31.6076606 L53.2748305,27.4804817 L37.2153171,43.5321101 L82.6843331,43.53225 C82.5778102,44.4128926 82.5229358,45.310082 82.5229358,46.2204918 C82.5229358,46.441209 82.5261611,46.6611492 82.5325657,46.8802649 L31.4958117,46.8807339 C26.8718695,46.8751985 23.1248048,43.1303642 23.1192661,38.5091743 L23.1192661,38.5091743 L23.1192661,8.37155963 C23.1248048,3.75036972 26.8718695,0.00553547001 31.4958117,-5.54223334e-13 L31.4958117,-5.54223334e-13 Z M26.4698843,12.8670872 L26.4698843,38.5091743 C26.4698843,41.2832651 28.7200687,43.5321101 31.4958117,43.5321101 L31.4958117,43.5321101 L32.4775429,43.5321101 L50.2106901,25.8095183 L26.4698843,12.8670872 Z M91.8069406,3.34862385 L31.4958117,3.34862385 C28.7200687,3.34862385 26.4698843,5.5974688 26.4698843,8.37155963 L26.4698843,8.37155963 L26.4698843,9.05133028 L61.6513761,28.2305734 L96.832868,9.05133028 L96.832868,8.37155963 C96.832868,5.5974688 94.5826836,3.34862385 91.8069406,3.34862385 L91.8069406,3.34862385 Z" id="Combined-Shape"></path>
                    <polygon id="Path" points="16.6972477 21.8348624 19.9082569 21.8348624 19.9082569 25.0458716 16.6972477 25.0458716"></polygon>
                    <polygon id="Path" points="3.21100917 21.8348624 13.4862385 21.8348624 13.4862385 25.0458716 3.21100917 25.0458716"></polygon>
                    <polygon id="Path" points="13.4862385 12.2018349 16.6972477 12.2018349 16.6972477 15.412844 13.4862385 15.412844"></polygon>
                    <polygon id="Path" points="0 12.2018349 10.2752294 12.2018349 10.2752294 15.412844 0 15.412844"></polygon>
                    <polygon id="Path" points="13.4862385 32.1100917 16.6972477 32.1100917 16.6972477 35.3211009 13.4862385 35.3211009"></polygon>
                    <polygon id="Path" points="0 32.1100917 10.2752294 32.1100917 10.2752294 35.3211009 0 35.3211009"></polygon>
                    <path d="M104.008812,21.5137625 C90.7225572,21.5137625 79.9541284,32.2880617 79.9541284,45.5782888 C79.9541284,58.8685159 90.7225572,69.6428163 104.006964,69.6428163 C117.290709,69.6428163 128.059007,58.8683846 128.059007,45.5782888 C128.044581,32.2936406 117.285852,21.529045 104.008812,21.5137625 Z M104.005116,24.7247696 C115.511225,24.7380136 124.835496,34.0673688 124.847998,45.5800323 C124.847998,57.0954024 115.516908,66.4318072 104.006964,66.4318072 C92.4963405,66.4318072 83.1651376,57.0955162 83.1651376,45.5782888 C83.1651376,34.0610614 92.4963405,24.7247696 104.005116,24.7247696 Z" id="Path"></path>
                    <path d="M113.69972,37.9213768 C112.662762,36.9648745 111.05074,37.0355016 110.099612,38.0786101 L101.797904,47.1831188 L97.3264575,43.3302648 C96.2573921,42.4092359 94.6491846,42.5335524 93.7330245,43.6079797 C92.8168643,44.6824069 92.9405237,46.2998003 94.0092712,47.2205097 L100.352138,52.6859633 C100.831835,53.09918 101.421839,53.3027523 102.009619,53.3027523 C102.700077,53.3027523 103.387356,53.0221612 103.888987,52.4718448 L113.856122,41.540618 C114.80725,40.4981487 114.736997,38.8775596 113.69972,37.9213768 Z" id="Path"></path>
                </g>
            </g>
        </g>
    </g>
</svg>