<?xml version="1.0" encoding="UTF-8"?>
<svg width="20px" height="20px" viewBox="0 0 20 20" version="1.1" xmlns="http://www.w3.org/2000/svg" xmlns:xlink="http://www.w3.org/1999/xlink">
    <!-- Generator: Sketch 61.2 (89653) - https://sketch.com -->
    <title>search</title>
    <desc>Created with Sketch.</desc>
    <g id="Booking-system" stroke="none" stroke-width="1" fill="none" fill-rule="evenodd">
        <g id="Caregiver-Search-Results" transform="translate(-233.000000, -347.000000)" fill="#9BA5B8" fill-rule="nonzero">
            <g id="search" transform="translate(233.000000, 347.000000)">
                <path d="M8.86075949,0 C3.97506889,0 0,3.97506889 0,8.86075949 C0,13.7467252 3.97506889,17.721519 8.86075949,17.721519 C13.7467252,17.721519 17.721519,13.7467252 17.721519,8.86075949 C17.721519,3.97506889 13.7467252,0 8.86075949,0 Z M8.86075949,16.0857246 C4.87696636,16.0857246 1.63583373,12.8445919 1.63583373,8.86079879 C1.63583373,4.87700566 4.87696636,1.63583373 8.86075949,1.63583373 C12.8445526,1.63583373 16.0856853,4.87696636 16.0856853,8.86075949 C16.0856853,12.8445526 12.8445526,16.0857246 8.86075949,16.0857246 Z" id="Shape"></path>
                <path d="M19.7602023,18.6029523 L15.0679414,13.9106841 C14.7482111,13.5909534 14.230414,13.5909534 13.9106838,13.9106841 C13.5909535,14.2301397 13.5909535,14.7484881 13.9106838,15.0679436 L18.6029447,19.7602118 C18.7627901,19.9200575 18.9720638,20 19.1815735,20 C19.3908079,20 19.6003175,19.9200575 19.7602023,19.7602118 C20.0799326,19.4407563 20.0799326,18.9224078 19.7602023,18.6029523 Z" id="Path"></path>
            </g>
        </g>
    </g>
</svg>