<?xml version="1.0" encoding="UTF-8"?>
<svg width="20px" height="20px" viewBox="0 0 20 20" version="1.1" xmlns="http://www.w3.org/2000/svg" xmlns:xlink="http://www.w3.org/1999/xlink">
    <!-- Generator: Sketch 61.2 (89653) - https://sketch.com -->
    <title>info</title>
    <desc>Created with Sketch.</desc>
    <g id="Onboarding-Process" stroke="none" stroke-width="1" fill="none" fill-rule="evenodd">
        <g id="Caregiver---Onboarding-Process-Step-201" transform="translate(-678.000000, -863.000000)" fill="#9BA5B8" fill-rule="nonzero">
            <g id="info" transform="translate(678.000000, 863.000000)">
                <path d="M10.6111111,4.68518519 C10.6111111,5.09428134 10.2794665,5.42592593 9.87037037,5.42592593 C9.46127422,5.42592593 9.12962963,5.09428134 9.12962963,4.68518519 C9.12962963,4.27608903 9.46127422,3.94444444 9.87037037,3.94444444 C10.2794665,3.94444444 10.6111111,4.27608903 10.6111111,4.68518519 Z" id="Path"></path>
                <path d="M9.92733758,15.0555556 C9.54989327,15.0555556 9.24356406,14.7817773 9.24356406,14.4444407 L9.24356406,8.12963709 L8.33192168,8.12963709 C7.95447736,8.12963709 7.64814815,7.85585883 7.64814815,7.51852225 C7.64814815,7.18118567 7.95447736,6.90740741 8.33192168,6.90740741 L9.92733758,6.90740741 C10.3047819,6.90740741 10.6111111,7.18118567 10.6111111,7.51852225 L10.6111111,14.4444407 C10.6111111,14.7817773 10.3047819,15.0555556 9.92733758,15.0555556 Z" id="Path"></path>
                <path d="M10,20 C4.48577883,20 0,15.5142212 0,10 C0,4.48577883 4.48577883,0 10,0 C15.5142212,0 20,4.48577883 20,10 C20,15.5142212 15.5142212,20 10,20 Z M10,1.25 C5.17501832,1.25 1.25,5.17501832 1.25,10 C1.25,14.8249817 5.17501832,18.75 10,18.75 C14.8249817,18.75 18.75,14.8249817 18.75,10 C18.75,5.17501832 14.8249817,1.25 10,1.25 Z" id="Shape"></path>
                <path d="M11.9444444,15.7962963 L8.05555556,15.7962963 C7.69777652,15.7962963 7.40740741,15.4644459 7.40740741,15.0555556 C7.40740741,14.6466652 7.69777652,14.3148148 8.05555556,14.3148148 L11.9444444,14.3148148 C12.3022235,14.3148148 12.5925926,14.6466652 12.5925926,15.0555556 C12.5925926,15.4644459 12.3022235,15.7962963 11.9444444,15.7962963 Z" id="Path"></path>
            </g>
        </g>
    </g>
</svg>