<?xml version="1.0" encoding="UTF-8"?>
<svg width="18px" height="18px" viewBox="0 0 18 18" version="1.1" xmlns="http://www.w3.org/2000/svg" xmlns:xlink="http://www.w3.org/1999/xlink">
    <!-- Generator: Sketch 61.2 (89653) - https://sketch.com -->
    <title>user</title>
    <desc>Created with Sketch.</desc>
    <g id="Landing-page" stroke="none" stroke-width="1" fill="none" fill-rule="evenodd">
        <g id="Caregiver-landing-page" transform="translate(-453.000000, -618.000000)" fill="#FFFFFF">
            <g id="Group-8" transform="translate(269.000000, 602.000000)">
                <g id="user" transform="translate(184.000000, 16.000000)">
                    <path d="M15.363984,11.636016 C14.3837224,10.6557888 13.2169572,9.93012893 11.9439497,9.49085176 C13.3073788,8.55179322 14.203125,6.98020327 14.203125,5.203125 C14.203125,2.33412883 11.8689959,0 9,0 C6.1310041,0 3.796875,2.33412883 3.796875,5.203125 C3.796875,6.98020327 4.69262123,8.55179322 6.05608571,9.49085176 C4.78307819,9.93012893 3.61631244,10.6557888 2.63605088,11.636016 C0.936175771,13.3359261 0,15.5960155 0,18 L1.40625,18 C1.40625,13.8127853 4.81278527,10.40625 9,10.40625 C13.1872147,10.40625 16.59375,13.8127853 16.59375,18 L18,18 C18,15.5960155 17.0638243,13.3359261 15.363984,11.636016 Z M9,9 C6.90641012,9 5.203125,7.29675019 5.203125,5.203125 C5.203125,3.10950004 6.90641012,1.40625 9,1.40625 C11.0935899,1.40625 12.796875,3.10950004 12.796875,5.203125 C12.796875,7.29675019 11.0935899,9 9,9 Z" id="Shape"></path>
                </g>
            </g>
        </g>
    </g>
</svg>