<?xml version="1.0" encoding="UTF-8"?>
<svg width="28px" height="29px" viewBox="0 0 28 29" version="1.1" xmlns="http://www.w3.org/2000/svg" xmlns:xlink="http://www.w3.org/1999/xlink">
    <!-- Generator: Sketch 61.2 (89653) - https://sketch.com -->
    <title>whatsapp-logo-variant (1) 2</title>
    <desc>Created with Sketch.</desc>
    <g id="Symbols" stroke="none" stroke-width="1" fill="none" fill-rule="evenodd">
        <g id="Header" transform="translate(-836.000000, -55.000000)" fill="#25D366">
            <g id="Group-3">
                <g id="whatsapp-logo-variant-(1)-2" transform="translate(835.983887, 55.500000)">
                    <path d="M27.7671413,13.5263743 C27.7671413,20.9962582 21.6644733,27.0518434 14.1348305,27.0518434 C11.7453727,27.0518434 9.5007865,26.4406713 7.54684618,25.3704411 L0,27.7671413 L2.46008169,20.5082251 C1.2196282,18.4709853 0.505235744,16.0788116 0.505235744,13.525469 C0.506141212,6.0555856 6.6069988,0 14.1366411,0 C21.6653786,0.00181088092 27.7671413,6.05649091 27.7671413,13.5263743 Z M14.1339579,2.15690732 C7.81489,2.15690732 2.67470527,7.25815943 2.67470527,13.5292407 C2.67470527,16.0173911 3.48597978,18.3208326 4.85772188,20.1950937 L3.42712615,24.4171637 L7.82937707,23.0182571 C9.6402579,24.2061954 11.8069766,24.8979523 14.1339579,24.8979523 C20.4530257,24.8979523 25.595022,19.7976057 25.595022,13.5265244 C25.5968335,7.25815943 20.4539315,2.15690732 14.1339579,2.15690732 Z M21.0189848,16.6418278 C20.9338737,16.5051071 20.7111351,16.421806 20.3779331,16.2552053 C20.0456362,16.0886039 18.4004511,15.2872892 18.0953172,15.1786366 C17.7874676,15.0672674 17.564729,15.0111304 17.3419905,15.343427 C17.1219686,15.6757235 16.480917,16.421806 16.2844358,16.6445444 C16.0897662,16.8663773 15.8950966,16.8944461 15.5609888,16.7305613 C15.2268818,16.5621496 14.1494072,16.2144607 12.872736,15.0853763 C11.8794675,14.2052882 11.2085361,13.1214764 11.0147715,12.7891798 C10.8182911,12.4577888 10.994852,12.2785116 11.1605476,12.1137216 C11.3099454,11.9643239 11.494655,11.7261932 11.6621618,11.5315233 C11.8296682,11.3386648 11.8849,11.2019432 11.9962692,10.9801104 C12.1058277,10.7582775 12.0505955,10.5654186 11.9682007,10.3979122 C11.8849,10.2313112 11.2175902,8.60151871 10.9378091,7.937831 C10.659839,7.27504875 10.3818688,7.38460702 10.1862936,7.38460702 C9.99162381,7.38460702 9.76888527,7.35744381 9.54614693,7.35744381 C9.3234086,7.35744381 8.96123232,7.43802799 8.6560988,7.77032458 C8.35096538,8.10262115 7.48717499,8.90393575 7.48717499,10.5355391 C7.48717499,12.1689534 8.68326206,13.7435142 8.85076857,13.9644416 C9.01918049,14.1844634 11.1632639,17.6423396 14.559572,18.9697149 C17.9576906,20.2961853 17.9576906,19.8534251 18.5697683,19.7972873 C19.1836568,19.7411504 20.5472504,18.9959727 20.8243152,18.2227269 C21.1031909,17.445859 21.1031909,16.7803604 21.0189848,16.6418278 Z" id="Shape"></path>
                </g>
            </g>
        </g>
    </g>
</svg>